<svg width="242" height="201" viewBox="0 0 242 201" fill="none" xmlns="http://www.w3.org/2000/svg">
<path d="M215.867 103.671V80.5444H201.547V85.8175H192.003V28.0498H173.654V50.7857H168.144V39.4298H153.829V94.8068H133.638V75.2424H120.976V32.8216H105.354V61.1005H90.6678V122.021H79.2877V92.3583H67.5414V73.2662H55.0624V58.6134L41.1374 65.9591V105.165H26.4509V97.077H6.8335V169.902L235.167 170.013V103.671H215.867Z" fill="#F0F0F0"/>
<path d="M113.5 37.8295H108.926V43.0688H113.5V37.8295Z" fill="#FAFAFA"/>
<path d="M113.5 46.6163H108.926V51.8557H113.5V46.6163Z" fill="#FAFAFA"/>
<path d="M113.5 55.4033H108.926V60.6427H113.5V55.4033Z" fill="#FAFAFA"/>
<path d="M113.5 64.1899H108.926V69.4293H113.5V64.1899Z" fill="#FAFAFA"/>
<path d="M113.5 72.9722H108.926V78.2115H113.5V72.9722Z" fill="#FAFAFA"/>
<path d="M113.5 81.7638H108.926V87.0031H113.5V81.7638Z" fill="#FAFAFA"/>
<path d="M113.5 90.5458H108.926V95.7851H113.5V90.5458Z" fill="#FAFAFA"/>
<path d="M113.5 99.3376H108.926V104.577H113.5V99.3376Z" fill="#FAFAFA"/>
<path d="M182.176 30.8164H177.601V36.0557H182.176V30.8164Z" fill="#FAFAFA"/>
<path d="M182.176 39.5984H177.601V44.8377H182.176V39.5984Z" fill="#FAFAFA"/>
<path d="M182.176 48.3903H177.601V53.6296H182.176V48.3903Z" fill="#FAFAFA"/>
<path d="M182.176 57.172H177.601V62.4113H182.176V57.172Z" fill="#FAFAFA"/>
<path d="M182.176 65.9639H177.601V71.2032H182.176V65.9639Z" fill="#FAFAFA"/>
<path d="M182.176 74.7458H177.601V79.9852H182.176V74.7458Z" fill="#FAFAFA"/>
<path d="M182.176 83.5375H177.601V88.7768H182.176V83.5375Z" fill="#FAFAFA"/>
<path d="M182.176 92.3197H177.601V97.559H182.176V92.3197Z" fill="#FAFAFA"/>
<path d="M93.2993 169.941V85.6824H75.1086V169.931L93.2993 169.941Z" fill="#E0E0E0"/>
<path d="M78.6949 88.3575H76.4922V92.9076H78.6949V88.3575Z" fill="#FAFAFA"/>
<path d="M83.1051 88.3575H80.9023V92.9076H83.1051V88.3575Z" fill="#FAFAFA"/>
<path d="M87.5152 88.3575H85.3125V92.9076H87.5152V88.3575Z" fill="#FAFAFA"/>
<path d="M91.9259 88.3575H89.7231V92.9076H91.9259V88.3575Z" fill="#FAFAFA"/>
<path d="M78.6949 95.9875H76.4922V100.538H78.6949V95.9875Z" fill="#FAFAFA"/>
<path d="M83.1051 95.9875H80.9023V100.538H83.1051V95.9875Z" fill="#FAFAFA"/>
<path d="M87.5152 95.9875H85.3125V100.538H87.5152V95.9875Z" fill="#FAFAFA"/>
<path d="M91.9259 95.9875H89.7231V100.538H91.9259V95.9875Z" fill="#FAFAFA"/>
<path d="M78.6949 103.613H76.4922V108.163H78.6949V103.613Z" fill="#FAFAFA"/>
<path d="M83.1051 103.613H80.9023V108.163H83.1051V103.613Z" fill="#FAFAFA"/>
<path d="M87.5152 103.613H85.3125V108.163H87.5152V103.613Z" fill="#FAFAFA"/>
<path d="M91.9259 103.613H89.7231V108.163H91.9259V103.613Z" fill="#FAFAFA"/>
<path d="M78.6949 111.238H76.4922V115.788H78.6949V111.238Z" fill="#FAFAFA"/>
<path d="M83.1051 111.238H80.9023V115.788H83.1051V111.238Z" fill="#FAFAFA"/>
<path d="M87.5152 111.238H85.3125V115.788H87.5152V111.238Z" fill="#FAFAFA"/>
<path d="M91.9259 111.238H89.7231V115.788H91.9259V111.238Z" fill="#FAFAFA"/>
<path d="M78.6949 118.859H76.4922V123.409H78.6949V118.859Z" fill="#FAFAFA"/>
<path d="M83.1051 118.859H80.9023V123.409H83.1051V118.859Z" fill="#FAFAFA"/>
<path d="M87.5152 118.859H85.3125V123.409H87.5152V118.859Z" fill="#FAFAFA"/>
<path d="M91.9259 118.859H89.7231V123.409H91.9259V118.859Z" fill="#FAFAFA"/>
<path d="M78.6949 126.484H76.4922V131.034H78.6949V126.484Z" fill="#FAFAFA"/>
<path d="M83.1051 126.484H80.9023V131.034H83.1051V126.484Z" fill="#FAFAFA"/>
<path d="M87.5152 126.484H85.3125V131.034H87.5152V126.484Z" fill="#FAFAFA"/>
<path d="M91.9259 126.484H89.7231V131.034H91.9259V126.484Z" fill="#FAFAFA"/>
<path d="M78.6949 134.109H76.4922V138.659H78.6949V134.109Z" fill="#FAFAFA"/>
<path d="M83.1051 134.109H80.9023V138.659H83.1051V134.109Z" fill="#FAFAFA"/>
<path d="M87.5152 134.109H85.3125V138.659H87.5152V134.109Z" fill="#FAFAFA"/>
<path d="M91.9259 134.109H89.7231V138.659H91.9259V134.109Z" fill="#FAFAFA"/>
<path d="M78.6949 141.739H76.4922V146.289H78.6949V141.739Z" fill="#FAFAFA"/>
<path d="M83.1051 141.739H80.9023V146.289H83.1051V141.739Z" fill="#FAFAFA"/>
<path d="M87.5152 141.739H85.3125V146.289H87.5152V141.739Z" fill="#FAFAFA"/>
<path d="M91.9259 141.739H89.7231V146.289H91.9259V141.739Z" fill="#FAFAFA"/>
<path d="M156.509 169.975V75.9604H118.797V169.999C118.797 169.999 156.22 170.008 156.509 169.975Z" fill="#E6E6E6"/>
<path d="M126.201 79.0692H121.627V84.3086H126.201V79.0692Z" fill="#E0E0E0"/>
<path d="M135.349 79.0692H130.775V84.3086H135.349V79.0692Z" fill="#E0E0E0"/>
<path d="M144.493 79.0692H139.918V84.3086H144.493V79.0692Z" fill="#E0E0E0"/>
<path d="M153.646 79.0692H149.072V84.3086H153.646V79.0692Z" fill="#E0E0E0"/>
<path d="M126.201 87.8612H121.627V93.1005H126.201V87.8612Z" fill="#E0E0E0"/>
<path d="M135.349 87.8612H130.775V93.1005H135.349V87.8612Z" fill="#E0E0E0"/>
<path d="M144.493 87.8612H139.918V93.1005H144.493V87.8612Z" fill="#E0E0E0"/>
<path d="M153.646 87.8612H149.072V93.1005H153.646V87.8612Z" fill="#E0E0E0"/>
<path d="M126.201 96.6431H121.627V101.882H126.201V96.6431Z" fill="#E0E0E0"/>
<path d="M135.349 96.6431H130.775V101.882H135.349V96.6431Z" fill="#E0E0E0"/>
<path d="M144.493 96.6431H139.918V101.882H144.493V96.6431Z" fill="#E0E0E0"/>
<path d="M153.646 96.6431H149.072V101.882H153.646V96.6431Z" fill="#E0E0E0"/>
<path d="M126.201 105.43H121.627V110.669H126.201V105.43Z" fill="#E0E0E0"/>
<path d="M135.349 105.43H130.775V110.669H135.349V105.43Z" fill="#E0E0E0"/>
<path d="M144.493 105.43H139.918V110.669H144.493V105.43Z" fill="#E0E0E0"/>
<path d="M153.646 105.43H149.072V110.669H153.646V105.43Z" fill="#E0E0E0"/>
<path d="M126.201 114.217H121.627V119.456H126.201V114.217Z" fill="#E0E0E0"/>
<path d="M135.349 114.217H130.775V119.456H135.349V114.217Z" fill="#E0E0E0"/>
<path d="M144.493 114.217H139.918V119.456H144.493V114.217Z" fill="#E0E0E0"/>
<path d="M153.646 114.217H149.072V119.456H153.646V114.217Z" fill="#E0E0E0"/>
<path d="M126.201 123.004H121.627V128.243H126.201V123.004Z" fill="#E0E0E0"/>
<path d="M135.349 123.004H130.775V128.243H135.349V123.004Z" fill="#E0E0E0"/>
<path d="M144.493 123.004H139.918V128.243H144.493V123.004Z" fill="#E0E0E0"/>
<path d="M153.646 123.004H149.072V128.243H153.646V123.004Z" fill="#E0E0E0"/>
<path d="M126.201 131.791H121.627V137.03H126.201V131.791Z" fill="#E0E0E0"/>
<path d="M135.349 131.791H130.775V137.03H135.349V131.791Z" fill="#E0E0E0"/>
<path d="M144.493 131.791H139.918V137.03H144.493V131.791Z" fill="#E0E0E0"/>
<path d="M153.646 131.791H149.072V137.03H153.646V131.791Z" fill="#E0E0E0"/>
<path d="M126.201 140.578H121.627V145.817H126.201V140.578Z" fill="#E0E0E0"/>
<path d="M135.349 140.578H130.775V145.817H135.349V140.578Z" fill="#E0E0E0"/>
<path d="M144.493 140.578H139.918V145.817H144.493V140.578Z" fill="#E0E0E0"/>
<path d="M153.646 140.578H149.072V145.817H153.646V140.578Z" fill="#E0E0E0"/>
<path d="M68.5005 169.931V69.3861H52.8982V170.013C57.8339 169.893 68.5005 169.931 68.5005 169.931Z" fill="#E6E6E6"/>
<path d="M59.781 71.2466H55.2068V76.4859H59.781V71.2466Z" fill="#FAFAFA"/>
<path d="M59.781 80.0336H55.2068V85.2729H59.781V80.0336Z" fill="#FAFAFA"/>
<path d="M59.781 88.8252H55.2068V94.0645H59.781V88.8252Z" fill="#FAFAFA"/>
<path d="M59.781 97.6072H55.2068V102.847H59.781V97.6072Z" fill="#FAFAFA"/>
<path d="M59.781 106.389H55.2068V111.629H59.781V106.389Z" fill="#FAFAFA"/>
<path d="M59.781 115.181H55.2068V120.42H59.781V115.181Z" fill="#FAFAFA"/>
<path d="M59.781 123.968H55.2068V129.207H59.781V123.968Z" fill="#FAFAFA"/>
<path d="M59.781 132.755H55.2068V137.994H59.781V132.755Z" fill="#FAFAFA"/>
<path d="M65.8977 71.2466H61.3235V76.4859H65.8977V71.2466Z" fill="#FAFAFA"/>
<path d="M65.8977 80.0336H61.3235V85.2729H65.8977V80.0336Z" fill="#FAFAFA"/>
<path d="M65.8977 88.8252H61.3235V94.0645H65.8977V88.8252Z" fill="#FAFAFA"/>
<path d="M65.8977 97.6072H61.3235V102.847H65.8977V97.6072Z" fill="#FAFAFA"/>
<path d="M65.8977 106.389H61.3235V111.629H65.8977V106.389Z" fill="#FAFAFA"/>
<path d="M65.8977 115.181H61.3235V120.42H65.8977V115.181Z" fill="#FAFAFA"/>
<path d="M65.8977 123.968H61.3235V129.207H65.8977V123.968Z" fill="#FAFAFA"/>
<path d="M65.8977 132.755H61.3235V137.994H65.8977V132.755Z" fill="#FAFAFA"/>
<path d="M217.935 71.1791H190.398V170.013H217.935V71.1791Z" fill="#E6E6E6"/>
<path d="M202.54 75.2615H194.471V80.5008H202.54V75.2615Z" fill="#FAFAFA"/>
<path d="M202.54 84.0531H194.471V89.2924H202.54V84.0531Z" fill="#FAFAFA"/>
<path d="M202.54 92.8401H194.471V98.0794H202.54V92.8401Z" fill="#FAFAFA"/>
<path d="M202.54 101.627H194.471V106.866H202.54V101.627Z" fill="#FAFAFA"/>
<path d="M202.54 110.414H194.471V115.653H202.54V110.414Z" fill="#FAFAFA"/>
<path d="M202.54 119.196H194.471V124.435H202.54V119.196Z" fill="#FAFAFA"/>
<path d="M202.54 127.987H194.471V133.227H202.54V127.987Z" fill="#FAFAFA"/>
<path d="M202.54 136.769H194.471V142.009H202.54V136.769Z" fill="#FAFAFA"/>
<path d="M213.337 75.2615H205.268V80.5008H213.337V75.2615Z" fill="#FAFAFA"/>
<path d="M213.337 84.0531H205.268V89.2924H213.337V84.0531Z" fill="#FAFAFA"/>
<path d="M213.337 92.8401H205.268V98.0794H213.337V92.8401Z" fill="#FAFAFA"/>
<path d="M213.337 101.627H205.268V106.866H213.337V101.627Z" fill="#FAFAFA"/>
<path d="M213.337 110.414H205.268V115.653H213.337V110.414Z" fill="#FAFAFA"/>
<path d="M213.337 119.196H205.268V124.435H213.337V119.196Z" fill="#FAFAFA"/>
<path d="M213.337 127.987H205.268V133.227H213.337V127.987Z" fill="#FAFAFA"/>
<path d="M213.337 136.769H205.268V142.009H213.337V136.769Z" fill="#FAFAFA"/>
<path d="M172.381 169.979V96.6431H160.37V169.975H172.381V169.979Z" fill="#E0E0E0"/>
<path d="M162.736 98.9663H161.281V102.871H162.736V98.9663Z" fill="#FAFAFA"/>
<path d="M165.652 98.9663H164.197V102.871H165.652V98.9663Z" fill="#FAFAFA"/>
<path d="M168.559 98.9663H167.103V102.871H168.559V98.9663Z" fill="#FAFAFA"/>
<path d="M171.47 98.9663H170.015V102.871H171.47V98.9663Z" fill="#FAFAFA"/>
<path d="M162.736 105.517H161.281V109.421H162.736V105.517Z" fill="#FAFAFA"/>
<path d="M165.652 105.517H164.197V109.421H165.652V105.517Z" fill="#FAFAFA"/>
<path d="M168.559 105.517H167.103V109.421H168.559V105.517Z" fill="#FAFAFA"/>
<path d="M171.47 105.517H170.015V109.421H171.47V105.517Z" fill="#FAFAFA"/>
<path d="M162.736 112.067H161.281V115.971H162.736V112.067Z" fill="#FAFAFA"/>
<path d="M165.652 112.067H164.197V115.971H165.652V112.067Z" fill="#FAFAFA"/>
<path d="M168.559 112.067H167.103V115.971H168.559V112.067Z" fill="#FAFAFA"/>
<path d="M171.47 112.067H170.015V115.971H171.47V112.067Z" fill="#FAFAFA"/>
<path d="M162.736 118.617H161.281V122.521H162.736V118.617Z" fill="#FAFAFA"/>
<path d="M165.652 118.617H164.197V122.521H165.652V118.617Z" fill="#FAFAFA"/>
<path d="M168.559 118.617H167.103V122.521H168.559V118.617Z" fill="#FAFAFA"/>
<path d="M171.47 118.617H170.015V122.521H171.47V118.617Z" fill="#FAFAFA"/>
<path d="M162.736 125.173H161.281V129.077H162.736V125.173Z" fill="#FAFAFA"/>
<path d="M165.652 125.173H164.197V129.077H165.652V125.173Z" fill="#FAFAFA"/>
<path d="M168.559 125.173H167.103V129.077H168.559V125.173Z" fill="#FAFAFA"/>
<path d="M171.47 125.173H170.015V129.077H171.47V125.173Z" fill="#FAFAFA"/>
<path d="M162.736 131.723H161.281V135.627H162.736V131.723Z" fill="#FAFAFA"/>
<path d="M165.652 131.723H164.197V135.627H165.652V131.723Z" fill="#FAFAFA"/>
<path d="M168.559 131.723H167.103V135.627H168.559V131.723Z" fill="#FAFAFA"/>
<path d="M171.47 131.723H170.015V135.627H171.47V131.723Z" fill="#FAFAFA"/>
<path d="M162.736 138.273H161.281V142.178H162.736V138.273Z" fill="#FAFAFA"/>
<path d="M165.652 138.273H164.197V142.178H165.652V138.273Z" fill="#FAFAFA"/>
<path d="M168.559 138.273H167.103V142.178H168.559V138.273Z" fill="#FAFAFA"/>
<path d="M171.47 138.273H170.015V142.178H171.47V138.273Z" fill="#FAFAFA"/>
<path d="M162.736 144.824H161.281V148.728H162.736V144.824Z" fill="#FAFAFA"/>
<path d="M165.652 144.824H164.197V148.728H165.652V144.824Z" fill="#FAFAFA"/>
<path d="M168.559 144.824H167.103V148.728H168.559V144.824Z" fill="#FAFAFA"/>
<path d="M171.47 144.824H170.015V148.728H171.47V144.824Z" fill="#FAFAFA"/>
<path d="M54.2913 170.013V107.517H22.1804V169.907L54.2864 170.008L54.2913 170.013Z" fill="#FAFAFA"/>
<path d="M28.5088 109.459H24.6143V112.737H28.5088V109.459Z" fill="#E0E0E0"/>
<path d="M36.2935 109.459H32.3989V112.737H36.2935V109.459Z" fill="#E0E0E0"/>
<path d="M44.0728 109.459H40.1782V112.737H44.0728V109.459Z" fill="#E0E0E0"/>
<path d="M51.8621 109.459H47.9675V112.737H51.8621V109.459Z" fill="#E0E0E0"/>
<path d="M28.5088 114.954H24.6143V118.232H28.5088V114.954Z" fill="#E0E0E0"/>
<path d="M36.2935 114.954H32.3989V118.232H36.2935V114.954Z" fill="#E0E0E0"/>
<path d="M44.0728 114.954H40.1782V118.232H44.0728V114.954Z" fill="#E0E0E0"/>
<path d="M51.8621 114.954H47.9675V118.232H51.8621V114.954Z" fill="#E0E0E0"/>
<path d="M28.5088 120.449H24.6143V123.727H28.5088V120.449Z" fill="#E0E0E0"/>
<path d="M36.2935 120.449H32.3989V123.727H36.2935V120.449Z" fill="#E0E0E0"/>
<path d="M44.0728 120.449H40.1782V123.727H44.0728V120.449Z" fill="#E0E0E0"/>
<path d="M51.8621 120.449H47.9675V123.727H51.8621V120.449Z" fill="#E0E0E0"/>
<path d="M28.5088 125.944H24.6143V129.221H28.5088V125.944Z" fill="#E0E0E0"/>
<path d="M36.2935 125.944H32.3989V129.221H36.2935V125.944Z" fill="#E0E0E0"/>
<path d="M44.0728 125.944H40.1782V129.221H44.0728V125.944Z" fill="#E0E0E0"/>
<path d="M51.8621 125.944H47.9675V129.221H51.8621V125.944Z" fill="#E0E0E0"/>
<path d="M28.5088 131.434H24.6143V134.711H28.5088V131.434Z" fill="#E0E0E0"/>
<path d="M36.2935 131.434H32.3989V134.711H36.2935V131.434Z" fill="#E0E0E0"/>
<path d="M44.0728 131.434H40.1782V134.711H44.0728V131.434Z" fill="#E0E0E0"/>
<path d="M51.8621 131.434H47.9675V134.711H51.8621V131.434Z" fill="#E0E0E0"/>
<path d="M28.5088 136.928H24.6143V140.206H28.5088V136.928Z" fill="#E0E0E0"/>
<path d="M36.2935 136.928H32.3989V140.206H36.2935V136.928Z" fill="#E0E0E0"/>
<path d="M44.0728 136.928H40.1782V140.206H44.0728V136.928Z" fill="#E0E0E0"/>
<path d="M51.8621 136.928H47.9675V140.206H51.8621V136.928Z" fill="#E0E0E0"/>
<path d="M28.5088 142.423H24.6143V145.701H28.5088V142.423Z" fill="#E0E0E0"/>
<path d="M36.2935 142.423H32.3989V145.701H36.2935V142.423Z" fill="#E0E0E0"/>
<path d="M44.0728 142.423H40.1782V145.701H44.0728V142.423Z" fill="#E0E0E0"/>
<path d="M51.8621 142.423H47.9675V145.701H51.8621V142.423Z" fill="#E0E0E0"/>
<path d="M41.8509 160.865C40.8966 159.968 38.8673 163.444 38.8673 163.444C38.8673 163.444 41.0508 155.867 38.8625 155.842C36.6742 155.818 36.5634 162.306 36.5634 162.306C36.5634 162.306 35.8596 149.408 33.011 150.43C30.1624 151.451 34.3173 162.962 34.3173 162.962C34.3173 162.962 30.6348 154.777 29.2225 156.387C27.8103 157.997 32.4615 164.841 32.4615 164.841C32.4615 164.841 29.0635 162.643 29.2852 164.21C29.5069 165.776 36.8719 169.869 36.8719 169.869C39.2288 167.078 42.8004 161.761 41.8461 160.865H41.8509Z" fill="#E6E6E6"/>
<path d="M36.8911 170.066C36.8333 170.066 36.7851 170.028 36.7754 169.97C36.7658 169.912 35.609 164.412 34.9535 160.701C34.9438 160.633 34.9872 160.571 35.0499 160.561C35.1125 160.547 35.18 160.595 35.1897 160.657C35.8452 164.364 36.9972 169.864 37.0116 169.921C37.0261 169.989 36.9827 170.052 36.92 170.066C36.9104 170.066 36.9056 170.066 36.8959 170.066H36.8911Z" fill="#E0E0E0"/>
<path d="M36.1296 166.418C36.0959 166.418 36.0573 166.403 36.038 166.374L33.7871 163.579C33.7437 163.526 33.7533 163.448 33.8064 163.41C33.8594 163.367 33.9317 163.376 33.9751 163.429L36.226 166.225C36.2694 166.278 36.2597 166.355 36.2067 166.393C36.1826 166.413 36.1585 166.422 36.1296 166.422V166.418Z" fill="#E0E0E0"/>
<path d="M225.103 162.388C224.404 161.275 221.565 164.128 221.565 164.128C221.565 164.128 225.594 157.351 223.483 156.773C221.372 156.194 219.622 162.446 219.622 162.446C219.622 162.446 222.206 149.788 219.193 150.054C216.181 150.319 217.289 162.508 217.289 162.508C217.289 162.508 215.795 153.659 214.026 154.859C212.257 156.059 215.024 163.858 215.024 163.858C215.024 163.858 212.291 160.874 212.108 162.446C211.925 164.017 218.017 169.84 218.017 169.84C221.006 167.733 225.801 163.497 225.107 162.388H225.103Z" fill="#E0E0E0"/>
<path d="M218.012 170.037H218.007C217.94 170.037 217.892 169.98 217.892 169.912C217.892 169.854 218.171 164.239 218.475 160.484C218.48 160.417 218.542 160.364 218.605 160.373C218.672 160.378 218.721 160.436 218.716 160.503C218.412 164.258 218.137 169.869 218.133 169.927C218.133 169.989 218.075 170.042 218.012 170.042V170.037Z" fill="#E0E0E0"/>
<path d="M218.196 166.321C218.147 166.321 218.104 166.297 218.085 166.249L216.615 162.976C216.586 162.913 216.615 162.846 216.672 162.817C216.73 162.788 216.803 162.817 216.832 162.875L218.302 166.148C218.331 166.21 218.302 166.278 218.244 166.307C218.229 166.316 218.21 166.316 218.196 166.316V166.321Z" fill="#E0E0E0"/>
<path d="M155.352 10.0663C154.624 9.51686 153.559 9.4542 152.769 9.91692C151.723 7.80094 148.802 6.86586 146.72 7.97928C146.175 5.69942 143.929 3.94494 141.581 3.97386C139.234 4.00278 137.031 5.81028 136.545 8.1046C136.467 8.47092 136.414 8.87098 136.154 9.13608C135.73 9.56988 135.021 9.42528 134.419 9.37708C132.52 9.22766 130.606 10.5628 130.091 12.3944L156.249 12.298C156.48 11.4111 156.085 10.6206 155.352 10.0663Z" fill="#E0E0E0"/>
<path d="M230.086 44.9534C229.358 44.4039 228.293 44.3413 227.503 44.804C226.457 42.688 223.536 41.753 221.453 42.8664C220.909 40.5865 218.663 38.832 216.315 38.8609C213.968 38.8899 211.765 40.6974 211.278 42.9917C211.201 43.358 211.148 43.7581 210.888 44.0232C210.464 44.457 209.755 44.3124 209.153 44.2642C207.254 44.1148 205.34 45.4499 204.824 47.2815L230.983 47.1851C231.214 46.2982 230.819 45.5077 230.086 44.9534Z" fill="#F0F0F0"/>
<path d="M208.652 17.4796C208.045 17.0168 207.153 16.9686 206.492 17.3542C205.615 15.5853 203.181 14.8045 201.441 15.7395C200.988 13.8356 199.108 12.3704 197.151 12.3945C195.194 12.4186 193.353 13.9272 192.943 15.8408C192.881 16.1444 192.837 16.477 192.621 16.6987C192.269 17.0602 191.676 16.9397 191.17 16.9012C189.584 16.7758 187.988 17.8893 187.555 19.422L209.399 19.3449C209.592 18.6074 209.259 17.9423 208.652 17.4844V17.4796Z" fill="#F5F5F5"/>
<path d="M85.6068 7.37177C84.9995 6.90905 84.1078 6.86085 83.4475 7.24645C82.5702 5.47751 80.1361 4.69667 78.3961 5.63175C77.943 3.72785 76.0632 2.26257 74.1063 2.28667C72.1494 2.31077 70.3082 3.81943 69.8985 5.73297C69.8358 6.03663 69.7924 6.36921 69.5707 6.59093C69.2188 6.95243 68.626 6.83193 68.1199 6.79337C66.5341 6.66805 64.9387 7.78147 64.5049 9.31423L86.3491 9.23711C86.5419 8.49965 86.2093 7.83449 85.602 7.37659L85.6068 7.37177Z" fill="#F5F5F5"/>
<path d="M62.1188 34.3061C61.0343 33.4867 59.4533 33.3951 58.2821 34.0796C56.7252 30.9369 52.3872 29.5488 49.2976 31.202C48.4927 27.8136 45.1524 25.2108 41.6675 25.2493C38.1827 25.2927 34.9099 27.9774 34.1821 31.3804C34.0664 31.9202 33.9893 32.5131 33.6037 32.9083C32.9723 33.5494 31.9263 33.3373 31.0298 33.265C28.2101 33.0433 25.3711 35.0243 24.6047 37.7476L63.4491 37.6078C63.7913 36.2919 63.2033 35.1159 62.1188 34.2965V34.3061Z" fill="#F0F0F0"/>
<path d="M214.469 140.578H127.348C125.791 140.578 124.523 139.31 124.523 137.753V10.8521C124.523 9.29525 125.791 8.02759 127.348 8.02759H214.469C216.026 8.02759 217.294 9.29525 217.294 10.8521V137.753C217.294 139.31 216.026 140.578 214.469 140.578ZM127.348 8.14809C125.859 8.14809 124.644 9.36273 124.644 10.8521V137.753C124.644 139.242 125.859 140.457 127.348 140.457H214.469C215.959 140.457 217.173 139.242 217.173 137.753V10.8521C217.173 9.36273 215.959 8.14809 214.469 8.14809H127.348Z" fill="#E0E0E0"/>
<path d="M114.006 140.578H26.8895C25.3326 140.578 24.0649 139.31 24.0649 137.753V10.8521C24.0649 9.29525 25.3326 8.02759 26.8895 8.02759H114.006C115.563 8.02759 116.831 9.29525 116.831 10.8521V137.753C116.831 139.31 115.563 140.578 114.006 140.578ZM26.8895 8.14809C25.4001 8.14809 24.1854 9.36273 24.1854 10.8521V137.753C24.1854 139.242 25.4001 140.457 26.8895 140.457H114.006C115.496 140.457 116.71 139.242 116.71 137.753V10.8521C116.71 9.36273 115.496 8.14809 114.006 8.14809H26.8895Z" fill="#E0E0E0"/>
<path d="M241.5 170.013H0.5V170.134H241.5V170.013Z" fill="#E0E0E0"/>
<path d="M33.146 176.886H25.405V177.007H33.146V176.886Z" fill="#E0E0E0"/>
<path d="M108.41 175.58H82.6089V175.701H108.41V175.58Z" fill="#E0E0E0"/>
<path d="M51.1004 181.365H33.6279V181.485H51.1004V181.365Z" fill="#E0E0E0"/>
<path d="M203.682 175.518H182.865V175.638H203.682V175.518Z" fill="#E0E0E0"/>
<path d="M211.028 175.518H207.977V175.638H211.028V175.518Z" fill="#E0E0E0"/>
<path d="M178.888 178.521H152.913V178.641H178.888V178.521Z" fill="#E0E0E0"/>
<path d="M221.68 197.545C221.68 199.179 176.604 200.5 121 200.5C65.3965 200.5 20.3198 199.174 20.3198 197.545C20.3198 195.916 65.3965 194.591 121 194.591C176.604 194.591 221.68 195.916 221.68 197.545Z" fill="#F5F5F5"/>
<path d="M176.56 45.5803C179.327 40.8182 177.712 34.7161 172.95 31.9494C168.188 29.1827 162.086 30.7974 159.319 35.5596C157.184 39.2372 157.67 43.7054 160.186 46.8239L159.7 49.7786L162.789 49.099C162.837 49.1279 162.881 49.1616 162.929 49.1905C167.691 51.9572 173.793 50.3425 176.56 45.5803Z" fill="#0A3771"/>
<path d="M179.124 40.5289H179.115C179.047 40.5241 178.999 40.4663 179.004 40.3988C179.235 37.2176 177.727 33.9303 175.172 32.0264C175.119 31.9879 175.109 31.9108 175.148 31.8577C175.187 31.8047 175.264 31.7951 175.317 31.8336C177.939 33.7857 179.481 37.1549 179.245 40.4181C179.245 40.4807 179.187 40.5289 179.124 40.5289Z" fill="#0A3771"/>
<path d="M178.666 43.4499C178.666 43.4499 178.633 43.4499 178.618 43.4402C178.556 43.4113 178.531 43.3438 178.556 43.2812C178.744 42.8474 178.845 42.3654 178.845 41.8882C178.845 41.8207 178.898 41.7677 178.965 41.7677C179.033 41.7677 179.086 41.8207 179.086 41.8882C179.086 42.3991 178.98 42.9149 178.777 43.3776C178.758 43.421 178.715 43.4499 178.666 43.4499Z" fill="#0A3771"/>
<g opacity="0.4">
<path d="M176.56 45.5803C179.327 40.8182 177.712 34.7161 172.95 31.9494C168.188 29.1827 162.086 30.7974 159.319 35.5596C157.184 39.2372 157.67 43.7054 160.186 46.8239L159.7 49.7786L162.789 49.099C162.837 49.1279 162.881 49.1616 162.929 49.1905C167.691 51.9572 173.793 50.3425 176.56 45.5803Z" fill="white"/>
</g>
<path d="M167.002 45.4306C166.752 45.1896 166.626 44.8956 166.626 44.5437C166.626 44.1918 166.752 43.9074 166.997 43.6713C167.243 43.4399 167.561 43.3194 167.942 43.3194C168.323 43.3194 168.641 43.4351 168.887 43.6713C169.133 43.9026 169.258 44.1967 169.258 44.5437C169.258 44.8907 169.133 45.1848 168.882 45.4306C168.631 45.6716 168.318 45.7921 167.942 45.7921C167.566 45.7921 167.253 45.6716 167.002 45.4306ZM166.665 36.0846H169.215L168.79 42.3506H167.089L166.665 36.0846Z" fill="white"/>
<path d="M38.7708 196.972L35.2474 196.948C35.2474 196.948 34.5389 196.562 34.1195 196.61C33.7002 196.658 32.2494 196.924 32.2494 196.924L22.8889 196.851C22.966 196.461 23.0624 196.109 23.1685 195.8C23.2986 195.425 23.4529 195.106 23.6167 194.836C24.2048 193.897 24.9953 193.564 25.858 193.516C27.1691 193.444 31.3143 190.72 31.3143 190.72C31.3143 190.72 32.8133 190.209 32.9097 188.614C32.9434 188.016 33.8303 187.293 34.2545 187.24C35.1124 187.124 35.5848 187.669 35.7005 188.527L35.8354 189.52L37.8165 189.226C37.8165 189.226 39.836 188.228 39.73 189.212C39.6722 189.771 39.3107 192.267 39.0841 194.248C39.0311 194.711 38.9829 195.145 38.9395 195.531C38.8431 196.384 38.7756 196.967 38.7756 196.967L38.7708 196.972Z" fill="#263238"/>
<g opacity="0.2">
<path d="M22.8889 196.851L32.2493 196.923C32.2493 196.923 33.7049 196.658 34.1195 196.61C34.5388 196.562 35.2473 196.947 35.2473 196.947L38.7708 196.972C38.7708 196.972 38.8382 196.388 38.9346 195.535L23.1636 195.8C23.0576 196.109 22.9612 196.456 22.884 196.851H22.8889Z" fill="white"/>
</g>
<path d="M29.2562 191.728C29.2996 191.684 29.367 191.679 29.4152 191.713C29.6466 191.867 29.8394 192.089 29.9695 192.364C30.037 192.508 29.8249 192.643 29.7575 192.499C29.6418 192.258 29.4731 192.06 29.2706 191.925C29.2032 191.882 29.1935 191.785 29.2514 191.728H29.2562Z" fill="#0A3771"/>
<path d="M30.0032 191.298C30.0466 191.255 30.1141 191.25 30.1623 191.284C30.3937 191.438 30.5865 191.66 30.7166 191.935C30.7841 192.079 30.572 192.214 30.5045 192.07C30.3888 191.829 30.2201 191.631 30.0177 191.496C29.9502 191.453 29.9406 191.356 29.9984 191.298H30.0032Z" fill="#0A3771"/>
<path d="M30.7745 190.894C30.8179 190.85 30.8853 190.845 30.9335 190.879C31.1649 191.033 31.3577 191.255 31.4878 191.53C31.5553 191.675 31.3432 191.809 31.2758 191.665C31.1601 191.424 30.9914 191.226 30.7889 191.091C30.7215 191.048 30.7118 190.951 30.7697 190.894H30.7745Z" fill="#0A3771"/>
<path d="M79.9528 197.449H70.7707C70.7707 197.449 70.5683 197.063 70.7996 196.037C70.8334 195.878 70.8816 195.699 70.9394 195.511C70.9394 195.502 70.9442 195.492 70.949 195.482C71.0358 195.198 71.1322 194.851 71.2382 194.47C71.6576 192.933 72.154 190.923 72.154 190.923C72.154 190.923 73.682 187.65 75.4702 188.469C77.0367 189.188 76.6656 191.236 76.6656 191.236C76.6656 191.236 76.8198 192.441 78.0103 193.501C78.7478 194.157 79.4756 194.663 79.8275 195.482C79.895 195.637 79.9432 195.796 79.9817 195.974C79.9817 195.993 79.9914 196.017 79.9914 196.042C80.0637 196.437 80.0588 196.895 79.9528 197.454V197.449Z" fill="#263238"/>
<g opacity="0.2">
<path d="M70.7997 196.037C70.5732 197.063 70.7708 197.449 70.7708 197.449H79.9529C80.0589 196.89 80.0637 196.432 79.9914 196.037H70.7997Z" fill="white"/>
</g>
<path d="M76.2944 191.752C75.7786 191.347 75.099 191.4 74.6363 191.853C74.511 191.973 74.3182 191.785 74.4435 191.66C75.0219 191.096 75.8509 191.062 76.4872 191.559C76.627 191.665 76.4293 191.858 76.2944 191.752Z" fill="#0A3771"/>
<path d="M76.5549 192.605C76.0391 192.205 75.3595 192.253 74.8968 192.706C74.7715 192.826 74.5787 192.638 74.704 192.513C75.2824 191.949 76.1115 191.915 76.7477 192.412C76.8875 192.518 76.6898 192.711 76.5549 192.605Z" fill="#0A3771"/>
<path d="M76.8149 193.395C76.2992 192.99 75.6195 193.043 75.1568 193.497C75.0315 193.617 74.8387 193.429 74.964 193.304C75.5424 192.74 76.3715 192.706 77.0077 193.203C77.1475 193.309 76.9499 193.501 76.8149 193.395Z" fill="#0A3771"/>
<path d="M42.6413 180.526L38.3515 192.103L34.4666 190.845L35.8065 178.627L42.6413 180.526Z" fill="#263238"/>
<path d="M70.6357 179.003L72.3517 191.597L76.4583 191.805L77.7886 179.663L70.6357 179.003Z" fill="#263238"/>
<path d="M79.1479 98.1185L60.3017 99.256L48.7723 97.2365C48.7723 97.2365 39.7589 135.42 39.0407 142.299C38.3225 149.177 30.7358 187.963 30.7358 187.963L40.7952 189.568C40.7952 189.568 52.1945 148.733 52.9609 145.012C53.6308 141.768 61.044 120.97 62.9383 115.683C63.1311 116.767 63.3239 117.852 63.5215 118.931C63.9987 123.809 65.5362 139.354 66.2062 145.138C66.2062 145.138 68.7223 180.121 69.0789 190.046L78.5261 189.568C79.6926 175.942 80.0878 126.32 80.0878 126.32C80.7433 115.928 79.1527 98.1185 79.1527 98.1185H79.1479Z" fill="#0A3771"/>
<g opacity="0.3">
<path d="M79.1479 98.1185L60.3017 99.256L48.7723 97.2365C48.7723 97.2365 39.7589 135.42 39.0407 142.299C38.3225 149.177 30.7358 187.963 30.7358 187.963L40.7952 189.568C40.7952 189.568 52.1945 148.733 52.9609 145.012C53.6308 141.768 61.044 120.97 62.9383 115.683C63.1311 116.767 63.3239 117.852 63.5215 118.931C63.9987 123.809 65.5362 139.354 66.2062 145.138C66.2062 145.138 68.7223 180.121 69.0789 190.046L78.5261 189.568C79.6926 175.942 80.0878 126.32 80.0878 126.32C80.7433 115.928 79.1527 98.1185 79.1527 98.1185H79.1479Z" fill="black"/>
</g>
<g opacity="0.5">
<path d="M53.6165 103.001C52.4934 106.688 49.4954 109.648 45.7984 110.723C45.6008 110.78 45.6828 111.094 45.8852 111.036C49.693 109.927 52.773 106.881 53.9298 103.088C53.9924 102.89 53.6791 102.803 53.6165 103.001Z" fill="black"/>
<path d="M63.6854 103.001C63.4685 106.225 63.2516 109.455 63.0347 112.679C63.025 112.887 62.7021 112.887 62.7117 112.679C62.8274 111.026 62.9335 109.368 63.0443 107.71C62.249 108.322 61.3188 107.58 61.0585 106.76C60.6343 105.43 60.7934 103.849 61.126 102.519C61.179 102.316 61.4923 102.403 61.4393 102.601C61.2031 103.536 61.1067 104.495 61.1742 105.454C61.2031 105.941 61.2513 106.505 61.4826 106.953C61.7381 107.454 62.384 107.874 62.8949 107.421C62.9527 107.372 63.0154 107.368 63.0684 107.397C63.1648 105.936 63.266 104.471 63.3624 103.006C63.3721 102.798 63.695 102.798 63.6854 103.006V103.001Z" fill="black"/>
<path d="M72.2023 102.866C72.1589 107.141 75.4462 110.718 79.7023 111.055C79.9047 111.07 79.9047 110.751 79.7023 110.737C75.6197 110.414 72.4771 106.953 72.5205 102.866C72.5205 102.664 72.2023 102.664 72.2023 102.866Z" fill="black"/>
</g>
<path d="M40.5686 143.036L43.6437 142.655L47.3792 145.711H44.0052L47.3792 147.138H40.5686L39.6672 145.711H41.494L40.5686 143.036Z" fill="#895555"/>
<path d="M77.9622 123.158C77.8706 122.117 77.2681 121.129 76.2656 120.565C75.4944 120.131 73.7351 119.731 72.9108 119.857C71.9131 119.852 70.8913 119.847 69.9465 120.257C69.0018 120.666 68.1294 121.573 67.8932 122.802C67.657 124.031 68.2644 125.52 69.2573 125.694C69.6959 125.771 70.255 125.66 70.4864 126.142C70.6551 126.484 70.5346 126.932 70.578 127.332C70.6406 127.887 71.0792 128.335 71.5179 128.292C71.9613 128.253 72.3421 127.732 72.3421 127.169C72.3276 127.882 72.8723 128.523 73.4314 128.455C73.9905 128.388 74.4291 127.622 74.3038 126.928C74.4099 127.352 74.5255 127.805 74.8051 128.084C75.0798 128.359 75.5667 128.345 75.7161 127.94C75.8848 127.491 75.5426 126.952 75.6534 126.479C75.7643 126.017 76.2125 125.882 76.5548 125.674C77.3019 125.221 78.0538 124.199 77.9574 123.158H77.9622ZM72.612 124.585C72.3324 125.038 71.7396 125.241 71.2142 125.159C70.6888 125.077 70.2213 124.749 69.8646 124.354C69.6429 124.108 69.4404 123.814 69.4404 123.481C69.4404 123.149 69.72 122.778 70.014 122.681C70.4526 122.512 70.9395 122.43 71.4022 122.512C71.8649 122.594 72.3132 122.85 72.5686 123.245C72.8241 123.64 72.8626 124.185 72.6168 124.59L72.612 124.585ZM73.7784 126.6C73.4121 126.696 73.3446 126.32 73.3446 126.32C73.3446 126.32 73.1759 126.773 72.8289 126.527C72.4819 126.282 73.1711 125.332 73.1711 125.332C73.4989 125.279 74.1496 126.503 73.7833 126.6H73.7784ZM76.8488 124.358C76.4873 124.754 76.0246 125.077 75.4992 125.163C74.9738 125.245 74.3809 125.048 74.1014 124.59C73.8556 124.185 73.8941 123.645 74.1496 123.245C74.405 122.85 74.8485 122.594 75.316 122.512C75.7836 122.43 76.2656 122.512 76.7042 122.681C76.9934 122.778 77.2778 123.153 77.2778 123.481C77.2778 123.814 77.0801 124.108 76.8536 124.354L76.8488 124.358Z" fill="#0A3771"/>
<path d="M59.3328 50.2942C59.3955 50.0435 56.489 46.5008 56.489 46.5008C56.489 46.5008 66.8568 45.1127 71.2527 45.9032L75.5521 46.8479L71.2527 51.7498L59.3328 50.299V50.2942Z" fill="#263238"/>
<path opacity="0.3" d="M69.2717 49.8651L71.2527 45.9031C71.2527 45.9031 65.0012 44.9294 60.239 46.1489C55.4768 47.3683 60.2679 46.0332 60.239 46.3031C60.2101 46.5682 61.7911 49.3879 61.7911 49.3879L69.2717 49.8651Z" fill="black"/>
<path d="M56.3974 49.7351C59.0966 49.5664 69.315 49.1181 80.3287 51.3257L80.7095 93.279C80.7336 96.7494 79.4563 97.2362 79.4563 97.2362C79.4563 97.2362 79.6105 98.7786 79.7069 99.5594C68.192 104.008 55.0623 104.351 47.7262 99.7812C47.7262 99.7522 47.813 99.2028 47.9817 97.9206C48.1697 96.4843 47.0611 96.3156 47.437 92.7488C48.6999 80.8482 51.4714 61.6646 53.4331 50.9594C53.4861 50.6943 56.1227 49.7496 56.3926 49.7351H56.3974Z" fill="#263238"/>
<path opacity="0.4" d="M48.3337 85.0947L47.9578 88.1746C47.9578 88.1746 55.1733 89.987 63.2516 87.0757C71.3299 84.1644 72.2843 81.9424 72.2843 81.9424L80.2421 85.0947V80.5687L67.204 76.3126L48.3337 85.0995V85.0947Z" fill="black"/>
<path d="M56.3975 49.735C56.3975 49.735 48.6325 50.646 46.9021 55.9094C45.62 59.7991 41.176 79.4937 42.9497 81.494C44.7235 83.4943 46.1068 84.6366 49.3989 85.08C52.691 85.5235 68.5536 77.1801 68.5536 77.1801L58.2388 73.1361L52.0836 74.5098L56.4024 49.735H56.3975Z" fill="#263238"/>
<path d="M79.7118 51.2969C79.7118 51.2969 81.6976 50.8101 83.775 54.936C85.8524 59.0619 89.5012 75.2716 89.5638 78.2504C89.641 81.9666 87.8961 83.9042 84.6764 83.9042C78.8683 83.9042 56.113 73.6087 56.113 73.6087L59.9931 67.0728L78.42 71.859L76.5595 58.6956L79.7118 51.2921V51.2969Z" fill="#263238"/>
<path opacity="0.3" d="M77.6054 67.4149L76.6752 63.5204L76.2173 66.1376L77.6054 67.4149Z" fill="black"/>
<path d="M67.7004 69.0778C67.7004 69.0778 73.0796 65.0964 75.3401 65.5833C77.6007 66.0701 77.9381 68.4367 77.9381 68.4367L78.4201 71.8637L67.7004 69.0778Z" fill="#895555"/>
<path opacity="0.3" d="M53.5393 66.1377L54.2719 61.9395L55.5444 66.5377L53.5393 66.1377Z" fill="black"/>
<path d="M59.3328 68.1811C59.3328 68.1811 55.8721 66.3881 54.0116 66.1422C52.874 65.9928 50.9798 68.3594 49.6784 70.2296C48.8445 71.425 49.1385 73.0734 50.3291 73.9169C50.8496 74.2832 51.2786 74.5724 51.3461 74.5724C51.5341 74.5724 56.3685 73.5795 56.3685 73.5795L59.3328 68.1811Z" fill="#895555"/>
<path d="M61.3816 51.2774C61.3961 52.3716 64.5001 59.4425 64.6303 59.3413C64.7604 59.2401 69.5515 50.834 69.5515 50.834L61.3816 51.2774Z" fill="#0A3771"/>
<path opacity="0.3" d="M56.113 73.6086L64.0371 79.4649L66.6881 78.1394L56.113 73.6086Z" fill="black"/>
<path opacity="0.3" d="M64.7505 59.3414H64.5095V68.2777H64.7505V59.3414Z" fill="black"/>
<path opacity="0.3" d="M59.1979 49.735L60.5089 52.9981L57.1831 49.735H58.846" fill="black"/>
<path opacity="0.3" d="M61.7188 100.605C53.1922 100.605 47.9866 98.0604 47.9336 98.0315L48.0396 97.8146C48.0975 97.8435 53.8815 100.673 63.2467 100.335C73.6145 99.9643 79.3455 97.159 79.4034 97.1301L79.5094 97.347C79.4516 97.3759 73.6772 100.205 63.2516 100.576C62.7262 100.596 62.2153 100.605 61.714 100.605H61.7188Z" fill="black"/>
<path opacity="0.3" d="M63.8443 80.4337H63.6033V100.485H63.8443V80.4337Z" fill="black"/>
<path opacity="0.3" d="M77.4801 60.9176C77.3355 58.2328 78.2513 55.5625 80.0251 53.543C80.1793 53.3694 79.9239 53.114 79.7696 53.2875C77.9332 55.3794 76.9692 58.1412 77.1186 60.9176C77.1331 61.1489 77.4946 61.1489 77.4801 60.9176Z" fill="black"/>
<path d="M86.2866 62.5226C86.2866 62.5226 86.113 63.0577 85.7612 62.9131C85.4093 62.7733 85.8046 61.8093 85.8046 61.8093C85.8479 61.79 86.0359 61.8141 86.0986 61.843C85.6937 60.3199 85.1924 58.7148 84.6381 57.0664C84.5658 57.0857 84.4935 57.105 84.4357 57.1291C83.5729 57.3315 82.686 57.5484 81.9582 58.0979C81.2256 58.6522 80.6616 59.6162 80.7146 60.7296C80.7677 61.843 81.6112 63.0046 82.5029 62.9468C82.8981 62.9227 83.356 62.7106 83.6597 63.0721C83.8766 63.3324 83.8669 63.7469 83.9922 64.0843C84.1658 64.5519 84.6333 64.8459 85.0093 64.7157C85.3852 64.5856 85.6021 64.0554 85.4864 63.5734C85.6214 64.1904 86.3203 64.6579 86.7878 64.4844L86.3492 62.7058C86.3251 62.6721 86.2914 62.5275 86.2914 62.5275L86.2866 62.5226ZM85.1683 61.2839C85.0237 61.737 84.5514 62.0358 84.079 62.0744C83.6066 62.1129 83.1343 61.9298 82.7439 61.6647C82.498 61.5008 82.2667 61.2839 82.1944 60.9995C82.1269 60.7151 82.2908 60.3295 82.5221 60.1849C82.8692 59.9439 83.2692 59.7752 83.6886 59.7463C84.1079 59.7174 84.5465 59.8475 84.8502 60.1367C85.1539 60.4259 85.3033 60.8887 85.1731 61.2887L85.1683 61.2839Z" fill="#0A3771"/>
<path d="M69.5465 50.8342C69.5465 50.8342 68.3078 46.1395 69.7682 39.9892C69.7682 39.9844 69.4405 39.859 69.4405 39.8494C69.6429 38.9914 69.8598 38.1961 70.0719 37.5021C70.0719 37.4828 70.0719 37.4731 70.0719 37.4731L62.0321 43.0017C62.3213 44.9297 61.8104 48.7086 61.4682 50.3136C61.4682 50.3136 60.562 53.2297 64.3795 53.1671C67.1702 53.1237 69.5465 50.8294 69.5465 50.8294V50.8342Z" fill="#895555"/>
<g opacity="0.2">
<path d="M66.3557 44.3997C65.358 45.542 63.6276 46.1831 62.037 46.2168C62.0611 46.077 62.0563 45.8649 62.0707 45.7203C62.0996 45.4986 62.0948 45.1612 62.1093 44.9299C62.1237 44.6455 62.1286 44.3322 62.1093 44.0382C62.0948 43.9225 62.0466 43.937 62.037 43.8213L62.0081 43.5803L66.8184 41.9463C67.2088 42.2307 67.1558 43.4742 66.3509 44.3997H66.3557Z" fill="black"/>
</g>
<path d="M72.8674 32.5955C74.0194 27.4285 69.532 22.6759 64.177 23.9147C58.74 25.1775 56.7927 32.8028 57.1638 37.671C57.5784 43.0742 63.6371 46.4916 68.2402 43.0983C71.3009 40.8425 71.7154 37.7577 72.8674 32.5955Z" fill="#895555"/>
<path d="M66.6401 33.6222C66.5919 34.1621 66.2689 34.567 65.9171 34.5332C65.5652 34.4995 65.3194 34.0319 65.3676 33.4969C65.4158 32.9571 65.7387 32.5522 66.0906 32.5859C66.4425 32.6197 66.6883 33.0872 66.6401 33.6222Z" fill="#263238"/>
<path d="M60.4223 33.3859C60.3741 33.9258 60.0512 34.3306 59.6993 34.2969C59.3475 34.2632 59.1016 33.7956 59.1498 33.2606C59.198 32.7208 59.521 32.3159 59.8728 32.3496C60.2247 32.3834 60.4705 32.8509 60.4223 33.3859Z" fill="#263238"/>
<path d="M61.7237 32.7401C61.7237 32.7401 59.7812 35.2658 59.1401 36.3069C59.8294 37.0492 61.1501 36.8516 61.1501 36.8516L61.7237 32.7401Z" fill="#773737"/>
<path d="M67.0691 29.8191C66.9872 29.8432 66.8908 29.8287 66.8185 29.7612C66.0087 29.0045 65.1604 29.178 65.0736 29.1973C64.9387 29.231 64.7989 29.1443 64.7652 29.0093C64.7314 28.8744 64.8134 28.7394 64.9483 28.7057C64.9965 28.696 66.134 28.4357 67.1607 29.3949C67.2619 29.4913 67.2716 29.6504 67.1752 29.7516C67.1462 29.7853 67.1077 29.8046 67.0643 29.8191H67.0691Z" fill="#263238"/>
<path d="M58.4605 31.4627C58.4123 31.4483 58.3737 31.4194 58.34 31.3808C58.2532 31.2699 58.2677 31.1109 58.3737 31.0241C59.4486 30.1372 60.5572 30.4891 60.6102 30.4987C60.7452 30.5421 60.8175 30.6867 60.7741 30.8169C60.7307 30.9518 60.5909 31.0241 60.4608 30.9807C60.4174 30.9663 59.5595 30.706 58.6919 31.4194C58.6244 31.4772 58.5376 31.4917 58.4557 31.4627H58.4605Z" fill="#263238"/>
<path d="M65.0158 37.9795C65.2135 36.5817 61.4346 38.7893 61.4346 38.7893C61.4346 38.7893 61.8491 40.351 63.3096 40.2208C65.0785 40.0666 65.0158 37.9795 65.0158 37.9795Z" fill="white"/>
<path d="M70.5781 35.3188C70.5781 35.3188 71.9759 26.4307 69.3393 25.4282C66.7076 24.4208 65.6569 26.8452 63.8638 26.4693C62.066 26.0933 62.4226 24.7823 62.4226 24.7823C61.2032 25.2643 59.9741 27.2067 58.8462 28.6624C58.8462 28.6624 60.5043 24.7003 62.7552 23.7122C67.1366 21.7939 72.0626 22.8832 73.8605 25.621C75.6246 28.3105 74.5064 32.9136 74.5064 32.9136C73.3929 36.384 72.641 38.2976 70.7082 40.2207L70.5829 35.314L70.5781 35.3188Z" fill="#263238"/>
<path d="M74.3087 36.3501C73.7495 37.7141 72.6072 38.6878 71.4793 39.1312C69.7779 39.7964 69.3296 37.9648 69.6381 36.2585C69.9128 34.7257 70.5298 32.8797 72.318 32.9423C74.0773 33.005 74.9545 34.7884 74.3135 36.3501H74.3087Z" fill="#895555"/>
<path opacity="0.2" d="M70.5634 36.2683C70.5634 36.2683 70.5489 36.2683 70.5393 36.2683C70.4718 36.2538 70.4332 36.1912 70.4429 36.1285C70.5441 35.6417 70.7658 35.1886 71.0936 34.8175C71.3153 34.5668 71.6816 34.2487 72.1588 34.1764C72.6263 34.1041 73.0987 34.3114 73.3011 34.6825C73.3349 34.7403 73.3108 34.8126 73.2529 34.8464C73.1951 34.8801 73.1228 34.856 73.0891 34.7982C72.9348 34.5186 72.5589 34.3596 72.1925 34.4126C71.7877 34.4752 71.4695 34.7548 71.2719 34.9765C70.9731 35.3187 70.7658 35.7333 70.6742 36.1767C70.6646 36.2345 70.6116 36.2731 70.5586 36.2731L70.5634 36.2683Z" fill="black"/>
<path opacity="0.2" d="M66.3365 31.2749C65.869 31.2363 62.7408 31.111 62.7697 31.834C62.8228 33.1884 62.6444 35.7623 65.3099 35.7623C68.6212 35.7623 68.2211 31.511 67.5174 31.4002C66.5823 31.2556 66.3365 31.2749 66.3365 31.2749Z" fill="black"/>
<path opacity="0.2" d="M57.5979 31.4482C58.0654 31.4096 61.1936 31.2843 61.1647 32.0073C61.1117 33.3617 61.29 35.9356 58.6245 35.9356C55.3132 35.9356 55.7133 31.6844 56.417 31.5735C57.3521 31.4289 57.5979 31.4482 57.5979 31.4482Z" fill="black"/>
<path d="M61.0391 32.1954L60.9089 31.993C61.497 31.6122 62.3116 31.5785 62.9285 31.911L62.8128 32.1231C62.2682 31.8291 61.5548 31.858 61.0391 32.1954Z" fill="black"/>
<path d="M67.8816 31.6921L67.8052 31.9207L71.2153 33.061L71.2917 32.8324L67.8816 31.6921Z" fill="black"/>
<path d="M153.198 71.9556C153.198 71.9556 151.781 69.1118 151.795 63.3615C151.795 63.3567 151.477 63.3133 151.477 63.3085C151.477 62.5036 151.506 61.7516 151.544 61.0961C151.544 61.0768 151.544 61.072 151.544 61.072L145.573 67.6513C146.233 69.2998 146.565 72.7557 146.599 74.2451C146.599 74.2451 146.402 77.0166 149.776 76.1683C152.239 75.5465 153.198 71.9556 153.198 71.9556Z" fill="#E9B376"/>
<path opacity="0.2" d="M146.131 70.0709L150.04 67.926C150.036 69.3335 149.327 71.2084 146.454 72.1676C146.454 72.1676 146.324 70.63 146.131 70.0709Z" fill="black"/>
<path d="M136.94 56.5411C136.569 58.4691 137.33 62.2479 139.784 60.7104C141.692 59.515 139.562 54.5552 138.106 54.4492C137.687 54.4203 137.084 55.8036 136.94 56.5411Z" fill="#263238"/>
<path d="M150.585 57.5245C151.583 62.2385 151.988 64.928 150.19 67.8779C147.486 72.3075 141.341 71.5748 139.099 67.1597C137.08 63.188 136.058 56.093 140.208 53.1769C144.295 50.3042 149.824 53.9192 150.585 57.5245Z" fill="#E9B376"/>
<path d="M150.87 50.9404C147.785 49.2004 142.102 50.8536 140.617 52.6033C140.396 52.8636 144.681 53.8709 144.43 53.842L146.382 54.0348C146.647 53.9047 147.269 54.1023 147.756 54.8928C147.756 54.8928 148.257 60.0116 150.788 61.5974C152.595 60.1707 152.952 59.2115 153.063 57.3944C153.227 54.6903 152.272 52.1165 150.874 50.9404H150.87Z" fill="#263238"/>
<path d="M153.366 60.9804C153.279 62.2721 152.605 63.4048 151.785 64.0844C150.556 65.1111 149.269 64.1712 149.047 62.6674C148.85 61.3129 149.25 59.1439 150.754 58.7005C152.238 58.2619 153.463 59.5006 153.366 60.9804Z" fill="#E9B376"/>
<path d="M145.211 60.1947C145.327 60.6719 145.163 61.1202 144.85 61.1925C144.536 61.2648 144.189 60.937 144.074 60.455C143.958 59.9778 144.122 59.5296 144.435 59.4573C144.748 59.385 145.095 59.7127 145.211 60.1947Z" fill="#263238"/>
<path d="M140.034 61.5829C140.15 62.0601 139.986 62.5083 139.673 62.5806C139.359 62.6529 139.012 62.3252 138.897 61.8432C138.781 61.366 138.945 60.9177 139.258 60.8454C139.572 60.7731 139.919 61.1009 140.034 61.5829Z" fill="#263238"/>
<path d="M141.008 61.0673C141.008 61.0673 140.063 63.8098 139.808 64.8943C140.617 65.3378 141.697 64.7835 141.697 64.7835L141.003 61.0673H141.008Z" fill="#D58745"/>
<path d="M144.845 57.9438C144.777 57.992 144.69 58.0016 144.613 57.9679C143.673 57.5389 142.95 57.9824 142.941 57.9872C142.835 58.0547 142.69 58.0209 142.623 57.9149C142.555 57.8088 142.589 57.6642 142.695 57.5968C142.733 57.5727 143.64 57.0184 144.806 57.5486C144.922 57.6016 144.975 57.7366 144.922 57.8522C144.902 57.8908 144.878 57.9197 144.849 57.9438H144.845Z" fill="#263238"/>
<path opacity="0.2" d="M150.19 61.9783C150.132 61.9783 150.079 61.9349 150.069 61.8722C150.016 61.4384 150.079 60.995 150.248 60.5901C150.363 60.3154 150.58 59.9491 150.961 59.7514C151.332 59.5586 151.79 59.602 152.07 59.8527C152.118 59.896 152.123 59.9732 152.079 60.0214C152.036 60.0696 151.959 60.0744 151.911 60.031C151.708 59.8478 151.356 59.8189 151.077 59.9635C150.759 60.1274 150.575 60.4455 150.474 60.6817C150.32 61.048 150.267 61.4481 150.315 61.8433C150.325 61.9108 150.277 61.9686 150.209 61.9783C150.209 61.9783 150.2 61.9783 150.195 61.9783H150.19Z" fill="black"/>
<path d="M146.233 63.5494L142.632 66.1089C142.998 66.4752 143.374 66.8463 143.823 67.1066C144.271 67.3669 144.753 67.391 145.254 67.256C145.972 67.0632 146.522 66.4559 146.623 65.7184C146.724 64.981 146.512 64.2387 146.233 63.5494Z" fill="black"/>
<path d="M142.921 65.9015C142.921 65.9015 143.346 66.3209 143.615 66.3209C143.89 66.3209 146.493 64.2772 146.493 64.2772L146.233 63.5446L142.921 65.8967V65.9015Z" fill="white"/>
<path d="M144.724 67.3331C144.724 67.3331 144.714 66.5667 145.442 65.9883C146.17 65.4099 146.647 65.4533 146.647 65.4533C146.647 65.4533 146.652 66.3642 145.963 66.8848C145.274 67.4054 144.724 67.3282 144.724 67.3282V67.3331Z" fill="#DE5753"/>
<path d="M136.988 60.1755C136.945 60.1755 136.901 60.1659 136.858 60.1418C136.752 60.0743 136.718 59.9297 136.786 59.8236C137.456 58.744 138.516 58.7295 138.564 58.7198C138.69 58.7198 138.796 58.8211 138.8 58.9464C138.8 59.0717 138.704 59.1778 138.579 59.1778C138.535 59.1778 137.721 59.2019 137.181 60.0646C137.137 60.1321 137.065 60.1707 136.993 60.1707L136.988 60.1755Z" fill="#263238"/>
<path d="M147.635 53.4466C146.069 51.6777 143.866 48.9689 141.528 48.6411C139.191 48.3133 137.374 48.8628 135.682 50.5113C134.337 51.8175 133.706 52.3814 133.411 52.9309C133.117 53.4804 133.084 54.2082 133.474 54.695C133.86 55.1818 134.718 55.2734 135.098 54.777C134.535 54.6516 133.975 55.1963 133.961 55.7699C133.947 56.3435 134.375 56.864 134.901 57.105C135.426 57.346 136.029 57.346 136.597 57.2737C140.299 56.7917 144.194 53.1719 147.91 53.49" fill="#263238"/>
<path opacity="0.3" d="M138.511 58.7295C137.32 59.091 136.626 59.5537 136.289 59.8333C136.12 59.9731 136.019 60.1659 136.005 60.378C135.942 61.2841 135.908 63.8676 138.121 63.5881C140.723 63.2555 140.67 61.2456 140.704 60.0357C140.738 58.8259 140.333 58.18 138.511 58.7295Z" fill="#263238"/>
<path opacity="0.3" d="M142.945 57.6259C144.17 57.3608 145.674 57.2354 146.122 57.3222C146.343 57.3656 146.536 57.4957 146.662 57.6885C147.206 58.5031 147.987 61.1059 145.924 61.959C143.495 62.9616 142.738 61.5301 142.054 60.4166C141.369 59.308 141.075 58.0259 142.945 57.6259Z" fill="#263238"/>
<path d="M150.754 58.821C150.754 58.821 150.739 58.821 150.73 58.821L146.315 57.8811C146.247 57.8666 146.209 57.8039 146.223 57.7365C146.237 57.6738 146.3 57.6304 146.368 57.6449L150.783 58.5848C150.85 58.5992 150.889 58.6619 150.874 58.7294C150.865 58.7872 150.812 58.8258 150.759 58.8258L150.754 58.821Z" fill="black"/>
<path d="M140.232 59.3176C140.203 59.3176 140.174 59.3079 140.155 59.2887C140.107 59.2453 140.097 59.1682 140.145 59.12C140.372 58.8549 140.69 58.6813 141.032 58.6235C141.379 58.5657 141.731 58.6283 142.035 58.8018C142.093 58.8356 142.112 58.9079 142.078 58.9657C142.044 59.0236 141.967 59.0428 141.914 59.0091C141.664 58.8645 141.355 58.8115 141.075 58.8597C140.791 58.9079 140.516 59.0621 140.328 59.279C140.304 59.3079 140.271 59.3224 140.237 59.3224L140.232 59.3176Z" fill="black"/>
<path d="M128.35 73.5028C128.35 73.5028 129.483 72.2303 129.801 70.7265C130.119 69.213 130.327 67.9791 130.298 66.8367C130.269 65.6896 129.285 66.8898 128.895 67.632C128.505 68.3743 128.052 69.213 127.541 68.8274C127.03 68.4418 124.875 63.3904 124.104 62.9374C123.338 62.4843 123.429 63.4097 123.429 63.4097C123.429 63.4097 122.87 62.1951 122.33 62.2867C122.19 62.3108 121.901 62.5903 122.07 63.1832C122.446 64.5183 123.381 67.2754 123.381 67.2754C123.333 67.1163 121.935 63.7953 121.66 63.323C121.304 62.7108 120.822 62.6 120.47 62.8217C119.973 63.135 121.564 67.3091 121.506 67.5308C121.506 67.5308 120.672 65.0967 119.925 64.9666C119.178 64.8364 119.621 66.3981 120.272 67.7043C120.87 68.8997 121.728 71.3965 122.451 72.5533C123.342 73.9752 124.263 74.7319 125.825 74.5198C127.386 74.3077 128.35 73.5076 128.35 73.5076V73.5028Z" fill="#E9B376"/>
<path opacity="0.3" d="M124.663 66.6776C124.61 66.6776 124.567 66.6439 124.547 66.5957C124.22 65.5883 123.844 64.5809 123.42 63.6025C123.395 63.5398 123.42 63.4723 123.482 63.4434C123.545 63.4193 123.612 63.4434 123.641 63.5061C124.065 64.4942 124.446 65.5064 124.774 66.5186C124.793 66.5812 124.76 66.6487 124.697 66.668C124.682 66.668 124.673 66.6728 124.658 66.6728L124.663 66.6776Z" fill="black"/>
<path opacity="0.3" d="M121.8 68.6055C121.766 68.6055 121.728 68.5911 121.704 68.5621C121.665 68.5091 121.67 68.432 121.723 68.3934C122.822 67.521 124.191 66.9764 125.589 66.8607C125.666 66.8559 125.714 66.9041 125.719 66.9715C125.724 67.039 125.675 67.0969 125.608 67.1017C124.258 67.2174 122.933 67.7427 121.872 68.5814C121.848 68.6007 121.824 68.6055 121.795 68.6055H121.8Z" fill="black"/>
<path opacity="0.3" d="M126.196 72.4906C126.148 72.4906 126.099 72.4616 126.085 72.4134C125.873 71.864 125.858 71.2325 126.046 70.6782C126.234 70.1239 126.625 69.6275 127.126 69.3142C127.184 69.2805 127.256 69.2949 127.29 69.3527C127.324 69.4106 127.309 69.4829 127.251 69.5166C126.798 69.7962 126.442 70.2445 126.273 70.7506C126.104 71.2567 126.114 71.8302 126.307 72.3267C126.331 72.3894 126.302 72.4568 126.239 72.4809C126.225 72.4857 126.21 72.4906 126.196 72.4906Z" fill="black"/>
<path d="M124.663 74.1052C124.692 74.4812 127.43 77.9612 127.189 77.9612C126.948 77.9612 130.206 76.4622 130.298 76.2646C130.394 76.067 127.767 72.905 127.767 72.905L124.663 74.1052Z" fill="#E9B376"/>
<path d="M151.202 79.1758L138.015 86.7577C138.015 86.7577 134.713 80.2989 133.758 77.9034C132.954 75.8886 130.163 75.1222 130.163 75.1222L129.025 73.8497H128.818L124.967 75.6958L125.536 77.1418C125.536 77.1418 125.343 78.8577 125.073 80.4001C124.803 81.9425 132.202 96.282 133.715 97.7328C134.804 98.7788 138.198 99.656 139.914 98.88C145.915 96.1712 154.759 86.7577 154.759 86.7577L151.207 79.1758H151.202Z" fill="#263238"/>
<path opacity="0.4" d="M151.202 79.1758L138.015 86.7577C138.015 86.7577 134.713 80.2989 133.758 77.9034C132.954 75.8886 130.163 75.1222 130.163 75.1222L129.025 73.8497H128.818L124.967 75.6958L125.536 77.1418C125.536 77.1418 125.343 78.8577 125.073 80.4001C124.803 81.9425 132.202 96.282 133.715 97.7328C134.804 98.7788 138.198 99.656 139.914 98.88C145.915 96.1712 154.759 86.7577 154.759 86.7577L151.207 79.1758H151.202Z" fill="black"/>
<path d="M127.748 188.137C127.849 187.929 129.044 185.736 129.035 185.649L133.416 176.655L123.458 173.546L120.836 185.023C120.219 186.599 118.831 186.874 118.831 186.874C118.831 186.874 114.676 188.893 113.129 188.421C112.112 188.112 111.056 188.156 109.976 188.999C109.668 189.24 109.388 189.544 109.118 189.954C108.82 190.407 108.776 190.6 108.579 191.289L117.279 194.441C117.279 194.441 119.072 194.75 119.578 194.87C120.084 194.995 120.739 195.738 120.739 195.738L124.808 197.266C124.808 197.266 125.135 196.62 125.608 195.675C125.82 195.251 126.066 194.764 126.321 194.253C127.425 192.055 127.439 188.758 127.748 188.137Z" fill="#263238"/>
<path d="M152.932 113.509C151.997 115.176 120.566 180.425 120.566 180.425L131.416 183.331L140.926 164.712L162.871 123.674L152.932 113.504V113.509Z" fill="#0A3771"/>
<path opacity="0.5" d="M152.932 113.509C151.997 115.176 120.566 180.425 120.566 180.425L131.416 183.331L140.926 164.712L162.871 123.674L152.932 113.504V113.509Z" fill="black"/>
<path d="M85.0909 113.003C84.8403 113.171 81.7506 114.839 82.2519 120.103C82.7532 125.366 85.0909 126.45 85.0909 126.45V113.003Z" fill="#0A3771"/>
<path d="M98.5967 124.021C98.5967 124.021 93.1115 127.202 85.0911 126.45V113.003C85.0911 113.003 92.1909 111.166 97.5363 114.675C102.053 117.639 98.5919 124.021 98.5919 124.021H98.5967Z" fill="#263238"/>
<path opacity="0.3" d="M98.5967 124.021C98.5967 124.021 93.1115 127.202 85.0911 126.45V113.003C85.0911 113.003 92.1909 111.166 97.5363 114.675C102.053 117.639 98.5919 124.021 98.5919 124.021H98.5967Z" fill="white"/>
<path d="M82.6809 108.279C82.6809 108.279 92.8607 104.336 100.086 109.677C105.195 113.456 105.933 118.7 105.933 118.7L103.012 121.37L82.6809 108.284V108.279Z" fill="#263238"/>
<path d="M232.299 144.222C232.299 144.222 232.911 150.714 232.467 150.714H231.026L227.753 144.222" fill="#B97964"/>
<path d="M74.9401 170.553L72.3662 169.151L101.195 116.174L116.508 100.268L118.619 102.302L103.581 117.924L74.9401 170.553Z" fill="#263238"/>
<g opacity="0.3">
<path d="M74.9401 170.553L72.3662 169.151L101.195 116.174L116.508 100.268L118.619 102.302L103.581 117.924L74.9401 170.553Z" fill="white"/>
</g>
<path d="M117.804 105.233C120.179 105.233 122.104 103.308 122.104 100.933C122.104 98.559 120.179 96.634 117.804 96.634C115.43 96.634 113.505 98.559 113.505 100.933C113.505 103.308 115.43 105.233 117.804 105.233Z" fill="#263238"/>
<path d="M133.334 177.779C131.517 177.779 129.82 177.75 128.355 177.687C120.638 177.364 117.867 174.665 115.645 172.491C115.269 172.125 114.917 171.783 114.565 171.474C112.039 169.286 98.6977 139.455 94.6682 130.369L97.3481 129.183C103.792 143.716 114.686 167.454 116.503 169.281C116.903 169.628 117.303 170.018 117.693 170.399C119.66 172.318 121.882 174.487 128.481 174.761C137.479 175.137 151.65 174.318 154.176 173.282C156.899 172.158 162.042 165.362 164.515 162.094C169.981 154.869 176.565 144.463 176.632 144.362L179.11 145.928C179.042 146.034 172.396 156.542 166.853 163.868C162.756 169.281 158.49 174.679 155.294 175.995C152.474 177.157 141.654 177.783 133.339 177.783L133.334 177.779Z" fill="#263238"/>
<g opacity="0.3">
<path d="M133.334 177.779C131.517 177.779 129.82 177.75 128.355 177.687C120.638 177.364 117.867 174.665 115.645 172.491C115.269 172.125 114.917 171.783 114.565 171.474C112.039 169.286 98.6977 139.455 94.6682 130.369L97.3481 129.183C103.792 143.716 114.686 167.454 116.503 169.281C116.903 169.628 117.303 170.018 117.693 170.399C119.66 172.318 121.882 174.487 128.481 174.761C137.479 175.137 151.65 174.318 154.176 173.282C156.899 172.158 162.042 165.362 164.515 162.094C169.981 154.869 176.565 144.463 176.632 144.362L179.11 145.928C179.042 146.034 172.396 156.542 166.853 163.868C162.756 169.281 158.49 174.679 155.294 175.995C152.474 177.157 141.654 177.783 133.339 177.783L133.334 177.779Z" fill="white"/>
</g>
<path d="M177.168 135.961L174.315 137.763L195.504 171.293L198.356 169.491L177.168 135.961Z" fill="#263238"/>
<path d="M184.933 142.381C184.933 142.381 192.351 138.438 207.529 141.634C222.707 144.829 226.587 156.927 226.587 156.927H231.836C231.836 156.927 228.64 143.576 211.635 137.3C197.354 132.027 192.466 135.705 188.244 136.842C184.022 137.985 184.933 142.381 184.933 142.381Z" fill="#0A3771"/>
<path d="M134.24 177.075L142.319 180.473C143.278 180.878 144.309 181.085 145.351 181.085H199.243V174.154L156.774 174.588L134.24 177.08V177.075Z" fill="#263238"/>
<path d="M170.357 139.19C169.696 139.262 146.825 139.19 146.825 139.19C146.825 139.19 146.753 152.252 147.712 153.047C148.676 153.843 149.486 153.606 149.486 153.606C149.486 153.606 150.373 159.251 156.369 159.545C162.365 159.834 163.917 158.282 165.913 157.838C167.913 157.395 176.55 144.67 176.117 143.523C175.683 142.371 173.683 138.823 170.352 139.19H170.357Z" fill="#263238"/>
<path opacity="0.3" d="M170.357 139.19C169.696 139.262 146.825 139.19 146.825 139.19C146.825 139.19 146.753 152.252 147.712 153.047C148.676 153.843 149.486 153.606 149.486 153.606C149.486 153.606 150.373 159.251 156.369 159.545C162.365 159.834 163.917 158.282 165.913 157.838C167.913 157.395 176.55 144.67 176.117 143.523C175.683 142.371 173.683 138.823 170.352 139.19H170.357Z" fill="white"/>
<path d="M102.862 116.03C103.238 115.779 113.505 118.719 113.505 118.719L110.757 136.842L115.52 143.523L126.345 140.173L130.182 146.107L128.803 147.495L130.813 151.625L134.944 147.495V145.355H147.601L171.162 145.48L175.422 148.936L158.88 169.951L149.052 171.325L119.289 162.273C119.289 162.273 112.893 146.733 107.253 139.166C101.614 131.598 99.8593 135.454 99.8641 135.57L96.5769 127.733L102.992 116.661" fill="#263238"/>
<path opacity="0.3" d="M102.862 116.03C103.238 115.779 113.505 118.719 113.505 118.719L110.757 136.842L115.52 143.523L126.345 140.173L130.182 146.107L128.803 147.495L130.813 151.625L134.944 147.495V145.355H147.601L171.162 145.48L175.422 148.936L158.88 169.951L149.052 171.325L119.289 162.273C119.289 162.273 112.893 146.733 107.253 139.166C101.614 131.598 99.8593 135.454 99.8641 135.57L96.5769 127.733L102.992 116.661" fill="white"/>
<path d="M222.476 143.61H228.081L231.576 151.379H228.636L222.476 143.61Z" fill="#0A3771"/>
<path d="M184.85 136.119C185.202 137.204 190.871 143.296 190.871 143.296L184.85 146.28L179.428 139.161L184.85 136.119Z" fill="#263238"/>
<g opacity="0.3">
<path d="M177.168 135.961L174.316 137.763L195.504 171.293L198.356 169.491L177.168 135.961Z" fill="white"/>
</g>
<path opacity="0.3" d="M184.85 136.119C185.202 137.204 190.871 143.296 190.871 143.296L184.85 146.28L179.428 139.161L184.85 136.119Z" fill="white"/>
<path d="M83.7332 172.211C85.035 166.644 81.5767 161.075 76.0089 159.773C70.4411 158.471 64.8721 161.929 63.5703 167.497C62.2685 173.065 65.7267 178.634 71.2946 179.936C76.8624 181.237 82.4314 177.779 83.7332 172.211Z" fill="#263238"/>
<path d="M200.52 141.634C184.648 141.634 171.783 154.498 171.783 170.37C171.783 186.243 184.648 199.107 200.52 199.107C216.393 199.107 229.257 186.243 229.257 170.37C229.257 154.498 216.393 141.634 200.52 141.634ZM200.52 192.205C188.171 192.205 178.165 182.194 178.165 169.85C178.165 157.506 188.176 147.495 200.52 147.495C212.864 147.495 222.875 157.506 222.875 169.85C222.875 182.194 212.864 192.205 200.52 192.205Z" fill="#263238"/>
<path d="M210.603 172.213C211.905 166.645 208.446 161.076 202.879 159.774C197.311 158.472 191.742 161.93 190.44 167.498C189.138 173.066 192.596 178.635 198.164 179.937C203.732 181.239 209.301 177.78 210.603 172.213Z" fill="#263238"/>
<path opacity="0.7" d="M134.24 177.075L142.319 180.473C143.278 180.878 144.309 181.085 145.351 181.085H199.243V174.154L156.774 174.588L134.24 177.08V177.075Z" fill="white"/>
<path d="M159.213 128.754C159.213 128.754 148.161 127.66 150.59 132.398C153.019 137.136 157.998 140.173 166.501 140.173C175.003 140.173 189.699 138.857 196.259 135.57C202.819 132.283 202.092 128.152 201.846 124.262C201.605 120.377 198.568 119.081 194.192 121.365C189.82 123.655 189.14 123.611 182.773 125.351C176.117 127.173 166.274 128.518 159.208 128.754H159.213Z" fill="#263238"/>
<path d="M135.007 174.699C137.349 174.549 140.492 174.626 142.791 174.149C145.09 173.677 147.486 173.069 149.048 171.32C150.643 169.527 151.188 167.642 151.549 165.271C151.79 163.695 151.139 161.367 150.243 160.046C149.554 159.029 148.402 158.407 147.211 158.118C146.021 157.829 144.782 157.833 143.553 157.838C137.441 157.872 131.257 157.92 125.343 159.458C122.904 160.094 120.446 161.029 118.677 162.827C116.908 164.625 116.002 167.459 117.052 169.748C117.992 171.792 120.176 172.93 122.277 173.739C122.277 173.739 126.504 175.238 135.002 174.699H135.007Z" fill="#263238"/>
<g opacity="0.7">
<path d="M135.007 174.699C137.349 174.549 140.492 174.626 142.791 174.149C145.09 173.677 147.486 173.069 149.048 171.32C150.643 169.527 151.188 167.642 151.549 165.271C151.79 163.695 151.139 161.367 150.243 160.046C149.554 159.029 148.402 158.407 147.211 158.118C146.021 157.829 144.782 157.833 143.553 157.838C137.441 157.872 131.257 157.92 125.343 159.458C122.904 160.094 120.446 161.029 118.677 162.827C116.908 164.625 116.002 167.459 117.052 169.748C117.992 171.792 120.176 172.93 122.277 173.739C122.277 173.739 126.504 175.238 135.002 174.699H135.007Z" fill="white"/>
</g>
<path d="M131.073 167.575C131.74 164.765 130.003 161.946 127.192 161.279C124.382 160.613 121.563 162.35 120.896 165.16C120.23 167.971 121.967 170.789 124.777 171.456C127.588 172.123 130.406 170.386 131.073 167.575Z" fill="#263238"/>
<path d="M146.013 169.257C148.304 166.966 148.304 163.252 146.013 160.961C143.722 158.67 140.008 158.67 137.717 160.961C135.426 163.252 135.426 166.966 137.717 169.257C140.008 171.547 143.722 171.547 146.013 169.257Z" fill="#263238"/>
<path d="M126.384 119.592C126.018 119.534 102.062 114.357 104.062 129.873C104.062 129.873 105.764 137.98 110.169 138.983C113.89 139.826 141.051 139.243 149.38 139.045C151.096 139.002 152.682 138.11 153.578 136.65L153.607 136.601C154.552 135.049 154.668 129.632 150.503 126.07C144.3 120.763 131.763 120.435 126.384 119.592Z" fill="#0A3771"/>
<path d="M59.439 145.393L57.2844 142.573C57.2844 142.573 74.6653 133.011 90.1954 142.573C90.1954 142.573 113.654 156.253 102.39 183.818L99.7342 182.454C99.7342 182.454 100.992 174.25 98.3219 163.145C95.6468 152.035 87.9348 145.147 78.7816 143.807C69.6284 142.472 59.439 145.393 59.439 145.393Z" fill="#0A3771"/>
<path d="M73.6531 141.634C57.7808 141.634 44.9163 154.498 44.9163 170.37C44.9163 186.243 57.7808 199.107 73.6531 199.107C89.5254 199.107 102.39 186.243 102.39 170.37C102.39 154.498 89.5254 141.634 73.6531 141.634ZM73.6531 192.205C61.3043 192.205 51.2979 182.194 51.2979 169.85C51.2979 157.506 61.3091 147.495 73.6531 147.495C85.9971 147.495 96.0083 157.506 96.0083 169.85C96.0083 182.194 85.9971 192.205 73.6531 192.205Z" fill="#263238"/>
<path opacity="0.3" d="M118.137 119.543C118.137 119.543 109.157 123.679 108.863 127.641C108.512 132.384 109.572 137.199 109.572 137.199C109.572 137.199 103.079 130.321 105.933 125.332C108.786 120.344 116.86 119.307 118.137 119.543Z" fill="white"/>
<path d="M154.452 182.832L135.189 188.585L135.855 190.816L155.118 185.062L154.452 182.832Z" fill="#263238"/>
<path opacity="0.3" d="M154.452 182.832L135.189 188.585L135.855 190.816L155.118 185.062L154.452 182.832Z" fill="white"/>
<path d="M150.937 173.686C150.889 173.45 150.474 170.891 150.412 170.828L148.291 160.668L138.15 164.446L143.293 175.523C143.789 177.205 142.825 178.314 142.825 178.314C142.825 178.314 140.704 182.613 139.133 183.211C138.101 183.601 137.263 184.315 136.916 185.688C136.815 186.083 136.776 186.508 136.819 187.019C136.863 187.582 136.949 187.766 137.224 188.455L146.363 185.51C146.363 185.51 148.031 184.623 148.522 184.401C149.014 184.18 150.026 184.372 150.026 184.372L154.33 183.037C154.33 183.037 154.186 182.3 153.974 181.225C153.877 180.738 153.771 180.189 153.656 179.605C153.164 177.104 151.082 174.39 150.937 173.682V173.686Z" fill="#263238"/>
<path d="M170.959 106.481L151.988 113.725L154.06 118.338C154.06 118.338 132.038 128.884 129.724 135.343C129.671 144.226 139.605 167.623 141.528 174.482L154.33 171.286C153.149 164.716 145.852 142.077 145.852 142.077C147.481 139.715 147.023 139.151 157.791 135.011C165.199 132.162 174.589 127.862 175.62 126.604C178.989 122.662 175.664 112.53 170.959 106.481Z" fill="#0A3771"/>
<path opacity="0.3" d="M170.959 106.481L151.988 113.725L154.06 118.338C154.06 118.338 132.038 128.884 129.724 135.343C129.671 144.226 139.605 167.623 141.528 174.482L154.33 171.286C153.149 164.716 145.852 142.077 145.852 142.077C147.481 139.715 147.023 139.151 157.791 135.011C165.199 132.162 174.589 127.862 175.62 126.604C178.989 122.662 175.664 112.53 170.959 106.481Z" fill="black"/>
<path opacity="0.4" d="M146.826 140.65L142.189 138.712C142.189 138.712 148.349 139.512 148.088 139.426C147.833 139.339 146.821 140.65 146.821 140.65H146.826Z" fill="black"/>
<path d="M121.202 100.933C121.202 102.109 120.248 103.068 119.067 103.068C117.886 103.068 116.932 102.114 116.932 100.933C116.932 99.7523 117.886 98.798 119.067 98.798C120.248 98.798 121.202 99.7523 121.202 100.933Z" fill="#263238"/>
<path d="M134.896 108.674C125.28 106.496 121.945 117.008 121.945 117.008H118.874C118.257 117.008 118.108 117.36 118.142 117.784C118.214 118.603 118.903 119.235 119.723 119.336L142.555 122.103C142.555 122.103 144.512 110.853 134.896 108.674Z" fill="#263238"/>
<path opacity="0.4" d="M142.671 118.483C142.671 118.483 142.704 113.229 139.027 110.598C139.027 110.598 135.99 111.754 136.332 114.405C136.675 117.056 140.116 117.158 140.116 117.158C140.116 117.158 140.559 119.221 141.196 118.584C141.601 118.179 141.639 117.779 141.61 117.538C141.716 117.948 141.991 118.82 142.425 118.71C142.661 118.647 142.671 118.488 142.671 118.488V118.483Z" fill="white"/>
<path d="M138.347 113.436C138.323 113.547 138.097 115.412 139.774 115.596C141.451 115.779 141.316 114.424 140.719 113.87C140.121 113.316 138.579 112.4 138.352 113.431L138.347 113.436Z" fill="#263238"/>
<path opacity="0.3" d="M121.945 117.003C121.945 117.003 129.705 117.495 132.424 117.924C135.142 118.353 122.22 116.28 122.22 116.28L121.945 117.003Z" fill="black"/>
<path d="M154.253 70.2397C154.253 70.2397 159.411 72.6305 162.404 75.9996C165.397 79.3688 174.878 100.577 174.382 103.57C173.88 106.563 173.239 108.944 173.239 108.944L174.565 111.219L153.357 117.746L152.263 116.015C152.263 116.015 151.925 116.574 149.679 113.003C147.433 109.431 143.982 87.7749 145.351 83.4224C145.466 83.0513 146.103 80.4485 146.136 79.123C146.204 76.5347 145.572 74.5922 145.572 74.5922L153.81 65.4438L154.253 70.2397Z" fill="#263238"/>
<path opacity="0.4" d="M147.409 104.206L147.977 107.267C147.977 107.267 155.304 93.1058 152.711 87.7749L147.409 104.206Z" fill="black"/>
<path d="M128.312 104.765L122.851 103.527C122.851 103.527 121.675 104.153 120.744 104.399C119.814 104.64 119.482 104.929 118.06 104.192C116.638 103.454 117.394 102.249 117.394 102.249C116.479 102.394 116.416 100.914 116.416 100.914C115.24 100.128 116.079 98.9042 116.079 98.9042C116.079 98.9042 116.816 97.3859 117.457 96.9472C118.093 96.5086 120.841 97.0051 120.841 97.0051L123.063 98.7114L129.401 99.0054C129.387 99.1162 128.312 104.77 128.312 104.77V104.765Z" fill="#E9B376"/>
<path d="M147.255 79.1275C147.255 79.1275 145.013 83.5619 144.223 86.854C143.495 89.8761 140.589 98.0219 140.589 98.0219L123.256 98.3738L122.094 104.037C122.094 104.037 142.521 108.925 145.481 106.664C148.44 104.404 149.621 100.022 151.675 95.4914C153.617 91.1968 154.518 87.9096 154.721 87.2203C155.131 85.8514 156.663 79.5999 153.289 77.4068C149.915 75.2137 147.255 79.1227 147.255 79.1227V79.1275Z" fill="#263238"/>
<path opacity="0.4" d="M146.498 80.7281C146.498 80.7281 147.669 75.9177 152.817 77.1468C152.817 77.1468 150.18 75.7346 148.088 76.9444C145.996 78.1542 146.498 80.7281 146.498 80.7281Z" fill="black"/>
<path opacity="0.4" d="M152.301 116.131L152.224 115.904C154.335 115.186 172.873 108.877 173.22 108.829L173.258 109.065C172.892 109.137 159.391 113.721 152.301 116.131Z" fill="black"/>
<path d="M170.371 91.433C170.371 91.433 170.116 92.5513 169.422 92.3826C168.728 92.2139 169.205 90.31 169.205 90.31C169.277 90.2666 169.769 90.3389 169.894 90.3678C168.728 87.6301 167.364 84.7718 165.884 81.8461C165.758 81.9039 165.493 81.8798 165.387 81.9376C163.826 82.5546 162.235 83.186 161.02 84.4151C159.806 85.6442 159.01 87.5963 159.415 89.6641C159.82 91.7319 161.7 93.6647 163.348 93.3177C164.081 93.1634 164.881 92.6429 165.542 93.2454C166.019 93.6743 166.11 94.4455 166.433 95.0432C166.882 95.8723 167.836 96.2916 168.501 95.9494C169.166 95.612 169.431 94.5612 169.079 93.684C169.499 94.8022 171.051 95.5686 171.875 95.1107L170.371 91.433ZM167.874 89.4954C167.725 90.3775 166.93 91.0619 166.057 91.2643C165.185 91.4668 164.259 91.2499 163.45 90.8595C162.948 90.6185 162.452 90.2811 162.245 89.7653C162.037 89.2496 162.245 88.4928 162.635 88.1554C163.214 87.6156 163.917 87.1866 164.693 87.0227C165.469 86.8589 166.322 86.9745 166.968 87.4373C167.614 87.9 168.014 88.7194 167.879 89.5002L167.874 89.4954Z" fill="#0A3771"/>
<path opacity="0.3" d="M91.7522 124.932L96.1721 116.54L88.2288 125.973L91.7522 124.932Z" fill="black"/>
<path d="M163.97 188.276C163.638 187.722 162.905 187.037 162.385 186.647C161.869 186.257 161.16 186.064 160.563 186.31C159.801 186.623 159.444 187.558 159.555 188.377C159.661 189.197 160.052 190.228 160.519 190.913C162.505 193.819 164.346 196.485 167.412 198.649C167.412 195.039 165.807 191.361 163.975 188.276H163.97Z" fill="#0A3771"/>
<path d="M174.087 188.778C173.403 188.402 172.126 188.937 171.499 189.404C170.26 190.335 169.504 191.308 168.747 192.663C167.788 194.383 167.677 196.793 167.552 198.326C169.981 196.355 172.453 194.335 174.116 191.684C174.406 191.221 174.675 190.725 174.729 190.18C174.782 189.636 174.565 189.038 174.087 188.773V188.778Z" fill="#0A3771"/>
<path d="M167.773 200.162C167.715 200.162 167.667 200.124 167.658 200.066C167.079 197.405 166.062 194.885 164.626 192.571C164.592 192.513 164.607 192.441 164.664 192.407C164.722 192.373 164.795 192.388 164.828 192.446C166.279 194.783 167.306 197.328 167.889 200.018C167.903 200.081 167.86 200.148 167.797 200.162C167.788 200.162 167.778 200.162 167.773 200.162Z" fill="#263238"/>
<path d="M167.455 198.683C167.455 198.683 167.426 198.683 167.417 198.678C167.354 198.654 167.32 198.586 167.344 198.524C167.995 196.731 168.944 195.078 170.164 193.612C170.207 193.559 170.284 193.554 170.333 193.598C170.386 193.641 170.39 193.718 170.347 193.766C169.142 195.212 168.207 196.842 167.566 198.606C167.547 198.654 167.503 198.688 167.45 198.688L167.455 198.683Z" fill="#263238"/>
</svg>
