<svg width="144" height="61" viewBox="0 0 144 61" fill="none" xmlns="http://www.w3.org/2000/svg">
<g filter="url(#filter0_d_595_2364)">
<rect x="3" y="3" width="134" height="51" rx="8" fill="#EDF5F8" fill-opacity="0.3" shape-rendering="crispEdges"/>
<path d="M41.3556 22.1911L41.3556 22.1911L35.6208 27.926C35.3034 28.2433 35.3034 28.7577 35.6208 29.075L41.3556 34.8098C41.6729 35.1271 42.1873 35.1271 42.5046 34.8098L42.7698 34.5446C43.0871 34.2273 43.0871 33.7129 42.7698 33.3956L37.8747 28.5005L42.7698 23.6053L42.7698 23.6053C43.0871 23.288 43.0871 22.7736 42.7698 22.4563L42.7698 22.4563L42.5046 22.1911C42.5046 22.1911 42.5046 22.1911 42.5046 22.1911C42.1873 21.8738 41.6729 21.8738 41.3556 22.1911Z" fill="black" stroke="black" stroke-width="0.5"/>
<path d="M63.72 36V23.4H66.168V28.926H71.334V23.4H73.782V36H71.334V30.726H66.168V36H63.72ZM80.1523 36.18C77.3443 36.18 75.0403 34.092 75.0403 31.5C75.0403 28.908 77.3443 26.82 80.1523 26.82C82.9603 26.82 85.2823 28.926 85.2823 31.5C85.2823 34.092 82.9603 36.18 80.1523 36.18ZM80.1523 34.488C81.7363 34.488 83.0143 33.156 83.0143 31.5C83.0143 29.844 81.7363 28.512 80.1523 28.512C78.5863 28.512 77.3083 29.844 77.3083 31.5C77.3083 33.156 78.5683 34.488 80.1523 34.488ZM86.7298 36V27H88.9978C88.9978 27.522 87.7018 28.89 87.7018 28.89L88.3318 29.43C88.5658 28.494 89.6458 26.82 91.3018 26.82C92.6518 26.82 93.5878 27.486 94.1818 28.602C94.7938 27.468 95.7478 26.82 96.8818 26.82C98.9878 26.82 100.5 28.368 100.5 30.924V36H98.2318V30.924C98.2318 29.232 97.6918 28.512 96.5398 28.512C95.5678 28.512 94.7758 29.232 94.7758 30.924V36H92.5078V30.924C92.5078 29.232 91.7338 28.512 90.6718 28.512C89.6638 28.512 88.9978 29.232 88.9978 30.924V36H86.7298ZM106.903 36.18C103.879 36.18 101.935 34.164 101.935 31.536C101.935 28.908 103.825 26.82 106.579 26.82C109.153 26.82 111.241 28.296 111.475 30.996L110.215 32.31L106.525 32.328C105.067 32.328 104.437 31.878 104.437 31.878L103.807 32.166C104.149 32.526 104.257 32.706 104.311 32.868C104.725 33.858 105.607 34.488 106.903 34.488C107.839 34.488 108.883 34.074 109.405 33.066L111.475 33.642C110.665 35.172 108.739 36.18 106.903 36.18ZM104.149 30.654L109.063 30.618L109.135 30.564C108.793 29.016 107.785 28.512 106.579 28.512C105.355 28.512 104.437 29.394 104.149 30.654Z" fill="black"/>
<rect x="2.5" y="2.5" width="135" height="52" rx="8.5" stroke="black" stroke-opacity="0.3" shape-rendering="crispEdges"/>
</g>
<defs>
<filter id="filter0_d_595_2364" x="0" y="0" width="144" height="61" filterUnits="userSpaceOnUse" color-interpolation-filters="sRGB">
<feFlood flood-opacity="0" result="BackgroundImageFix"/>
<feColorMatrix in="SourceAlpha" type="matrix" values="0 0 0 0 0 0 0 0 0 0 0 0 0 0 0 0 0 0 127 0" result="hardAlpha"/>
<feOffset dx="2" dy="2"/>
<feGaussianBlur stdDeviation="2"/>
<feComposite in2="hardAlpha" operator="out"/>
<feColorMatrix type="matrix" values="0 0 0 0 0 0 0 0 0 0 0 0 0 0 0 0 0 0 0.15 0"/>
<feBlend mode="normal" in2="BackgroundImageFix" result="effect1_dropShadow_595_2364"/>
<feBlend mode="normal" in="SourceGraphic" in2="effect1_dropShadow_595_2364" result="shape"/>
</filter>
</defs>
</svg>
