<svg width="12" height="15" viewBox="0 0 12 15" fill="none" xmlns="http://www.w3.org/2000/svg">
<path d="M10.0003 5.33335H9.33366V4.00002C9.33366 2.16002 7.84032 0.666687 6.00033 0.666687C4.16033 0.666687 2.66699 2.16002 2.66699 4.00002V5.33335H2.00033C1.26699 5.33335 0.666992 5.93335 0.666992 6.66669V13.3334C0.666992 14.0667 1.26699 14.6667 2.00033 14.6667H10.0003C10.7337 14.6667 11.3337 14.0667 11.3337 13.3334V6.66669C11.3337 5.93335 10.7337 5.33335 10.0003 5.33335ZM6.00033 11.3334C5.26699 11.3334 4.66699 10.7334 4.66699 10C4.66699 9.26669 5.26699 8.66669 6.00033 8.66669C6.73366 8.66669 7.33366 9.26669 7.33366 10C7.33366 10.7334 6.73366 11.3334 6.00033 11.3334ZM8.06699 5.33335H3.93366V4.00002C3.93366 2.86002 4.86033 1.93335 6.00033 1.93335C7.14033 1.93335 8.06699 2.86002 8.06699 4.00002V5.33335Z" fill="#656F77"/>
</svg>
