<svg width="129" height="119" viewBox="0 0 129 119" fill="none" xmlns="http://www.w3.org/2000/svg">
<path d="M29.2267 88.5703H7.03711V118.921H29.2267V88.5703Z" fill="#E0E0E0"/>
<path d="M29.226 88.5703H18.8223V118.921H29.226V88.5703Z" fill="#F0F0F0"/>
<path d="M13.6823 92.6816H11.6875V97.707H13.6823V92.6816Z" fill="#F5F5F5"/>
<path d="M13.6823 112.352H11.6875V117.377H13.6823V112.352Z" fill="#F5F5F5"/>
<path d="M18.823 99.6779C18.823 99.7231 16.1836 99.7562 12.9315 99.7562C9.67942 99.7562 7.03711 99.7231 7.03711 99.6779C7.03711 99.6327 9.67362 99.5996 12.9315 99.5996C16.1894 99.5996 18.823 99.6357 18.823 99.6779Z" fill="white"/>
<path d="M13.6823 102.59H11.6875V107.615H13.6823V102.59Z" fill="#F5F5F5"/>
<path d="M18.823 109.59C18.823 109.632 16.1836 109.668 12.9315 109.668C9.67942 109.668 7.03711 109.632 7.03711 109.59C7.03711 109.548 9.67362 109.512 12.9315 109.512C16.1894 109.512 18.823 109.548 18.823 109.59Z" fill="white"/>
<path d="M23.028 92.6816H21.0332V97.707H23.028V92.6816Z" fill="#E0E0E0"/>
<path d="M27.3542 92.6816H25.3594V97.707H27.3542V92.6816Z" fill="#E0E0E0"/>
<path d="M23.028 102.219H21.0332V107.244H23.028V102.219Z" fill="#E0E0E0"/>
<path d="M27.3542 102.219H25.3594V107.244H27.3542V102.219Z" fill="#E0E0E0"/>
<path d="M23.028 111.756H21.0332V116.781H23.028V111.756Z" fill="#E0E0E0"/>
<path d="M27.3542 111.756H25.3594V116.781H27.3542V111.756Z" fill="#E0E0E0"/>
<path d="M30.8951 87.5137H5.36914V88.6067H30.8951V87.5137Z" fill="#E0E0E0"/>
<path d="M29.3796 88.7131C29.3796 88.7552 24.4201 88.7913 18.3051 88.7913C12.19 88.7913 7.24219 88.7552 7.24219 88.7131C7.24219 88.6709 12.2016 88.6348 18.3196 88.6348C24.4376 88.6348 29.3796 88.6709 29.3796 88.7131Z" fill="white"/>
<path d="M115.209 96.9102H99.248V118.74H115.209V96.9102Z" fill="#E0E0E0"/>
<path d="M115.207 96.9102H107.725V118.74H115.207V96.9102Z" fill="#F0F0F0"/>
<path d="M104.026 99.8652H102.592V103.481H104.026V99.8652Z" fill="#F5F5F5"/>
<path d="M104.026 114.016H102.592V117.632H104.026V114.016Z" fill="#F5F5F5"/>
<path d="M107.724 104.9C107.724 104.933 105.828 104.957 103.487 104.957C101.147 104.957 99.248 104.933 99.248 104.9C99.248 104.867 101.144 104.846 103.487 104.846C105.831 104.846 107.724 104.87 107.724 104.9Z" fill="white"/>
<path d="M104.026 106.994H102.592V110.61H104.026V106.994Z" fill="#F5F5F5"/>
<path d="M107.724 112.03C107.724 112.06 105.828 112.087 103.487 112.087C101.147 112.087 99.248 112.06 99.248 112.03C99.248 112 101.144 111.973 103.487 111.973C105.831 111.973 107.724 111.997 107.724 112.03Z" fill="white"/>
<path d="M110.745 99.8652H109.311V103.481H110.745V99.8652Z" fill="#E0E0E0"/>
<path d="M113.862 99.8652H112.428V103.481H113.862V99.8652Z" fill="#E0E0E0"/>
<path d="M110.745 106.727H109.311V110.343H110.745V106.727Z" fill="#E0E0E0"/>
<path d="M113.862 106.727H112.428V110.343H113.862V106.727Z" fill="#E0E0E0"/>
<path d="M110.745 113.586H109.311V117.202H110.745V113.586Z" fill="#E0E0E0"/>
<path d="M113.862 113.586H112.428V117.202H113.862V113.586Z" fill="#E0E0E0"/>
<path d="M116.409 96.1484H98.0488V96.9343H116.409V96.1484Z" fill="#E0E0E0"/>
<path d="M115.318 97.0112C115.318 97.0443 111.749 97.0684 107.35 97.0684C102.951 97.0684 99.3828 97.0443 99.3828 97.0112C99.3828 96.9781 102.948 96.957 107.35 96.957C111.752 96.957 115.318 96.9811 115.318 97.0112Z" fill="white"/>
<path d="M3.41602 37.3902H19.7606C19.7606 37.3902 19.7606 33.5091 17.8326 33.5091C17.1407 33.4856 16.4626 33.7134 15.9155 34.1532C15.3684 34.593 14.9866 35.2172 14.836 35.9179C14.836 35.9179 14.836 28.6765 11.3226 29.7393C7.99506 30.745 7.62049 35.3819 7.62049 35.3819C7.62049 35.3819 7.02234 33.0484 5.21918 34.3642C3.41602 35.68 3.41602 37.3902 3.41602 37.3902Z" fill="#E0E0E0"/>
<path d="M89.7559 5.03124H100.354C100.354 5.03124 100.354 2.51406 99.1027 2.51406C98.6544 2.49865 98.215 2.64605 97.8603 2.93081C97.5056 3.21557 97.258 3.61982 97.1601 4.07375C97.1601 4.07375 97.1601 -0.620363 94.8808 0.0691503C92.7263 0.719521 92.4824 3.72447 92.4824 3.72447C92.4824 3.72447 92.0933 2.21899 90.926 3.06507C89.7588 3.91115 89.7559 5.03124 89.7559 5.03124Z" fill="#EBEBEB"/>
<path d="M111.262 53.56H121.86C121.86 53.56 121.86 51.0458 120.609 51.0458C120.16 51.0304 119.721 51.1778 119.366 51.4625C119.011 51.7473 118.764 52.1516 118.666 52.6055C118.666 52.6055 118.666 47.9114 116.387 48.5979C114.232 49.2513 113.988 52.2562 113.988 52.2562C113.988 52.2562 113.599 50.7507 112.432 51.5968C111.265 52.4429 111.262 53.56 111.262 53.56Z" fill="#E0E0E0"/>
<path d="M123.018 118.922C123.018 118.964 96.0136 119 62.7031 119C29.3925 119 2.38281 118.964 2.38281 118.922C2.38281 118.88 29.3867 118.844 62.7031 118.844C96.0194 118.844 123.018 118.877 123.018 118.922Z" fill="#263238"/>
<path d="M102.915 7.61523H61.582V10.4757H100.157V110.44H61.582V113.3H102.915V7.61523Z" fill="#455A64"/>
<path d="M61.582 10.4766V13.337V107.581V110.441H100.157V10.4766H61.582Z" fill="white"/>
<path d="M20.8874 110.44V10.4757H61.5819V7.61523H18.1289V113.3H61.5819V110.44H20.8874Z" fill="#263238"/>
<path d="M20.8867 10.4766V110.441H61.5813V107.581V13.337V10.4766H20.8867Z" fill="#F5F5F5"/>
<path d="M91.0058 13.5447C91.7404 13.7977 92.4576 14.0777 93.1719 14.3698V10.4766H69.9863H70.387C76.4905 10.7024 84.3506 11.2293 91.0058 13.5447Z" fill="#F5F5F5"/>
<path d="M96.9805 10.4766V16.0981C98.0345 16.6159 99.0885 17.1609 100.157 17.7149V11.8556C99.1669 11.3799 98.1535 10.9162 97.1111 10.4766H96.9805Z" fill="#F5F5F5"/>
<path d="M32.7763 97.236C34.8221 96.494 36.7863 95.5291 38.6358 94.3575L26.1502 85.0234C24.2628 85.9478 22.2854 86.9083 20.9004 87.929V95.8148C23.8737 98.0881 28.7547 98.6632 32.7763 97.236Z" fill="#F5F5F5"/>
<path d="M54.3241 73.7457C54.0222 71.8531 54.0026 69.9236 54.266 68.0249L48.1829 66.5194C45.2793 65.7998 42.1433 67.0252 41.4552 69.145C39.7682 74.3539 35.2878 79.4545 29.9219 82.9954C29.1486 83.4888 28.3498 83.9382 27.5293 84.3413L33.4672 88.7795L54.7016 75.4048C54.5447 74.8598 54.4187 74.3059 54.3241 73.7457Z" fill="#F5F5F5"/>
<path d="M58.8491 82.5552C57.2375 80.8909 55.9717 78.9019 55.1296 76.7109L34.627 89.628L39.8825 93.5573C41.8686 92.2476 43.7502 90.8294 45.7363 89.4805C49.8635 86.7061 54.2581 84.3852 58.8491 82.5552Z" fill="#F5F5F5"/>
<path d="M79.6835 74.3326L55.9027 68.416C55.6849 70.1405 55.7162 71.889 55.9956 73.6039C56.5667 76.7976 58.0829 79.7275 60.3336 81.9865C66.5144 79.6527 72.9202 78.0183 79.4396 77.1117C81.475 76.8106 81.6522 74.7993 79.6835 74.3326Z" fill="#F5F5F5"/>
<path d="M31.4274 64.7575L32.3246 59.2384L32.4146 58.7295C32.2723 58.4284 32.1243 58.1484 31.9936 57.8594C30.6986 58.2177 29.2613 58.1816 27.8937 58.3502C26.526 58.5188 25.0655 58.9975 24.6067 59.9249C24.3164 60.494 24.4761 61.1293 24.6329 61.7134C24.871 62.6288 25.11 63.5431 25.3501 64.4564C25.5475 65.2212 25.7624 66.0101 26.3721 66.6544C26.7403 67.019 27.1837 67.292 27.6686 67.4526C28.1536 67.6133 28.6674 67.6575 29.1713 67.5818C29.5212 67.5255 29.8563 67.3955 30.156 67.1998C30.4556 67.004 30.7134 66.7467 30.9134 66.4437C31.1953 65.9245 31.3703 65.3504 31.4274 64.7575Z" fill="#F5F5F5"/>
<path d="M82.1777 53.527L97.1112 58.1277L100.157 55.9207V49.5224L90.1802 46.4512L82.1777 53.527Z" fill="#E6E6E6"/>
<path d="M91.9238 44.9081L100.156 47.4434V40.8524L96.9529 40.4609L91.9238 44.9081Z" fill="#E6E6E6"/>
<path d="M96.9784 16.0981V10.4766H93.1689V34.5644L44.4835 24.6974L47.1229 10.4766H43.383L40.822 24.2638L20.8856 23.4117V26.0403L40.34 26.8864L35.4851 53.0216L22.1806 54.7349L20.8856 49.9384V58.6251C21.0067 60.9843 21.3629 63.3242 21.9483 65.6075C22.1955 66.7947 22.6802 67.9148 23.3711 68.8955C24.7097 70.6509 27.2533 71.9065 30.0292 72.2076C29.0429 73.6708 27.8348 74.9591 26.4519 76.0225C24.8433 77.263 22.9356 78.2747 20.8856 79.2352V82.3515L21.9251 81.8878L26.1354 85.0343L38.6211 94.3683L42.3958 97.1836C38.7343 99.2913 35.1047 100.965 31.2807 101.417C30.3718 101.522 29.2888 101.58 28.1302 101.64C25.6967 101.72 23.2714 101.972 20.8711 102.396V105.105C21.0627 105.06 21.2515 105.018 21.4518 104.979C23.7167 104.563 26.0081 104.321 28.3073 104.253C29.5414 104.187 30.7086 104.127 31.7917 104C38.4701 103.212 44.0712 99.6737 49.9917 95.928C56.1591 92.0137 63.151 87.5966 72.2017 86.2658C81.8069 84.8506 92.5126 87.2865 100.143 92.625V89.0419C95.6189 86.4944 90.7095 84.7635 85.6252 83.9233C88.3866 81.9481 90.3494 79.4068 91.0957 76.6819C91.1392 76.5223 91.177 76.3627 91.2147 76.2031C91.341 75.6322 91.4052 75.0485 91.4064 74.4628C91.4065 74.1609 91.389 73.8592 91.3541 73.5595L100.155 70.8466V67.9832L90.6079 70.9369C90.0511 69.7729 89.2967 68.7224 88.3808 67.8356L100.155 62.1148V60.6695L87.3209 66.9022C85.2799 65.3254 82.944 64.2076 80.4625 63.6203L69.3764 60.8231L95.7996 37.759L100.155 38.2257V35.573L96.9784 35.2328V16.0981ZM43.9957 27.329L57.7386 30.1171L56.9895 57.7007L39.1786 53.2113L43.9957 27.329ZM24.8578 68.3294C24.1638 67.4261 23.8473 66.3362 23.6063 65.3937C22.932 62.7645 22.5703 60.0596 22.5291 57.3394L34.9799 55.7375L34.1959 59.9529C33.4352 64.0478 32.5844 67.8206 30.7435 71.0483C28.3044 70.9068 26.0193 69.859 24.8578 68.3294ZM27.5262 84.3237L23.3566 81.2074C25.4076 80.2724 27.3604 79.1212 29.1842 77.7718C35.0583 73.2554 36.5943 67.1762 37.8719 60.3082L38.6936 55.879L56.3855 60.3413C55.3615 62.795 54.6481 65.3757 54.263 68.0193C53.9996 69.9181 54.0192 71.8475 54.321 73.7401C54.4163 74.2942 54.5423 74.8421 54.6985 75.3811L33.4642 88.7619L27.5262 84.3237ZM47.6165 93.9588C46.2954 94.7959 45.0033 95.6179 43.6937 96.4007L39.8812 93.5493L34.6256 89.62L55.1283 76.7029C55.9703 78.8939 57.2362 80.8829 58.8478 82.5472C60.0862 83.8336 61.4857 84.9415 63.0087 85.8412C57.0679 87.9881 52.1346 91.1075 47.6165 93.9679V93.9588ZM79.2169 66.0893C84.9777 67.5406 88.4882 71.6234 87.5619 75.7906C87.5329 75.9201 87.501 76.0496 87.4661 76.176C86.6792 79.0334 84.246 81.668 80.8836 83.3482C75.4209 82.9509 69.9346 83.6052 64.7016 85.2782C63.0982 84.4063 61.63 83.2898 60.3461 81.9661C58.0975 79.7103 56.5814 76.785 56.0081 73.5956C55.7287 71.8807 55.6973 70.1322 55.9151 68.4077C56.2722 65.7608 56.9725 63.1761 57.9971 60.7237L79.2169 66.0893ZM76.0229 50.7785L65.6017 59.8746L58.6562 58.1222L59.4053 30.4574L76.02 33.8267L76.0229 50.7785ZM77.9277 49.1164V34.2121L91.7809 37.0243L77.9277 49.1164Z" fill="#E0E0E0"/>
<path d="M37.24 29.0077L25.2363 28.6133V42.241H35.1116L37.24 29.0077Z" fill="#EBEBEB"/>
<path d="M34.7627 44.8066H23.334V50.3649H34.7627V44.8066Z" fill="#EBEBEB"/>
<path d="M64.6016 25.4821L90.6327 30.2515V16.1602H74.1255V22.5735H64.6016V25.4821Z" fill="#EBEBEB"/>
<path d="M58.2535 24.4258V12.7402H50.2453L48.8457 22.5681L58.2535 24.4258Z" fill="#EBEBEB"/>
<path d="M70.3176 12.3125H62.0625V18.2983H70.3176V12.3125Z" fill="#E0E0E0"/>
<path d="M75.4473 59.4773L89.1089 63.9185L95.0933 59.5857L80.4328 55.0723L75.4473 59.4773Z" fill="#E6E6E6"/>
<path d="M54.4453 31.9805H46.8262V49.5104H54.4453V31.9805Z" fill="#EBEBEB"/>
<path d="M43.6528 48.6543H41.748V52.0748H43.6528V48.6543Z" fill="#E0E0E0"/>
<path d="M73.4912 35.9845L62.0625 33.5215V42.4641V43.9515H73.4912V35.9845Z" fill="#EBEBEB"/>
<path d="M63.3337 49.082H60.793V54.2127H63.3337V49.082Z" fill="#EBEBEB"/>
<path d="M67.1422 49.082H64.6016V54.2127H67.1422V49.082Z" fill="#EBEBEB"/>
<path d="M70.9528 49.082H68.4121V54.2127H70.9528V49.082Z" fill="#EBEBEB"/>
<path d="M24.6034 10.4766H20.8867V21.0842L24.6034 21.2227V10.4766Z" fill="#E6E6E6"/>
<path d="M37.8782 21.6864L39.6436 10.4766H27.7793V21.3131L37.8782 21.6864Z" fill="#E6E6E6"/>
<path d="M100.158 86.5776V81.2812L97.8027 85.4454L100.158 86.5776Z" fill="#F0F0F0"/>
<path d="M43.1808 96.4377C49.1971 93.4268 53.117 87.3747 58.9563 84.0626C60.4478 83.1659 62.1091 82.6153 63.8257 82.4487C65.3501 82.3404 66.8135 82.4728 68.306 82.0302C70.3937 81.428 71.6626 80.0219 72.5802 78.0045C73.7097 75.5175 74.5604 72.2506 73.4774 69.613C72.4438 67.1204 70.5645 65.1075 68.1957 63.9553C66.9006 63.323 65.5098 62.9467 64.1857 62.3836C63.3146 62.0163 62.2867 61.6158 61.5724 60.9594C61.0324 60.4566 61.2472 60.1344 61.5928 59.478C62.0573 58.6622 62.5876 57.8886 63.1782 57.1656C64.2496 55.7745 65.533 54.4226 66.3199 52.8208C66.8716 51.7007 66.9703 50.4361 66.9877 49.2076C67.0458 45.1909 67.191 41.1833 67.2781 37.1637C67.2781 36.7211 66.6422 36.7271 66.6161 37.1637C66.4041 40.7347 66.2009 44.3358 66.2734 47.9159C66.2996 49.2226 66.3722 50.6589 65.9453 51.9145C65.382 53.5735 64.026 54.9585 62.9749 56.2954C62.1295 57.3009 61.387 58.3948 60.7594 59.5593C60.4952 60.0953 60.3355 60.4626 60.652 61.0016C61.3576 62.206 63.3001 62.8082 64.4993 63.2869C66.0121 63.8891 67.5539 64.3106 68.9651 65.1808C70.292 66.0282 71.4049 67.1915 72.2114 68.5742C73.4251 70.5674 73.5645 72.4523 73.0476 74.7256C72.3798 77.6673 71.1283 80.612 68.1463 81.5244C66.6945 81.97 65.2804 81.8526 63.8053 81.961C62.5488 82.0702 61.3183 82.3947 60.1642 82.9215C53.5439 85.8511 49.2755 92.6078 43.0327 96.227C42.8875 96.3113 43.0153 96.5281 43.1605 96.4558L43.1808 96.4377Z" fill="#263238"/>
<path d="M47.2108 78.1947C47.6667 74.1209 42.6115 72.8352 40.6776 75.8281C38.9093 78.5681 43.7497 86.6224 43.7497 86.6224M44.6208 79.7634C44.3106 79.9863 43.9437 80.1088 43.5664 80.1153C43.1891 80.1219 42.8184 80.0123 42.5012 79.8005C42.184 79.5886 41.9345 79.2839 41.7843 78.9249C41.6341 78.566 41.5899 78.1689 41.6573 77.7839C41.7247 77.3989 41.9008 77.0433 42.1631 76.7621C42.4254 76.4808 42.7623 76.2866 43.1311 76.2039C43.5 76.1212 43.8841 76.1538 44.2351 76.2975C44.586 76.4413 44.888 76.6897 45.1028 77.0114C45.3894 77.4437 45.4989 77.9761 45.4075 78.492C45.3161 79.0079 45.0311 79.4651 44.615 79.7634H44.6208Z" fill="#AD4043"/>
<path d="M83.3007 37.1038C81.9447 35.0383 81.0272 34.0115 79.0788 33.2798C78.3323 33.0022 77.5486 32.8468 76.7559 32.8192C74.8918 33.4214 73.6055 33.4214 71.7384 32.8192C70.7831 32.9426 69.9672 32.217 65.0891 35.3574C63.0769 36.6521 61.6947 37.5073 59.305 38.7839C58.6517 39.085 58.19 39.2807 58.0884 39.2175C57.6471 38.9435 52.8357 29.8142 52.8357 29.8142C52.8357 29.8142 51.7643 26.6587 51.3142 26.6798C50.8642 26.7009 47.6701 26.8002 47.6208 27.3181C47.5714 27.836 47.7689 30.1153 48.1173 30.4254C48.4657 30.7356 49.723 31.5666 49.723 31.5666C49.723 31.5666 55.0599 45.8748 57.0315 45.67C58.4833 45.5225 64.0351 43.1257 66.9213 41.8521L67.5601 41.6142L67.9405 49.9095L67.7866 60.3636L80.3681 59.6229L80.1648 48.8647C80.2606 46.1849 80.1938 45.3207 80.4552 43.0986L84.2299 44.5861L84.9007 40.172C84.4455 39.1075 83.9105 38.0816 83.3007 37.1038Z" fill="#E5BAAB"/>
<path d="M49.2184 24.3917C48.4983 22.5851 45.6063 22.9193 45.3624 24.8222C45.0227 27.4869 49.985 29.5946 49.985 29.5946V29.414C49.985 29.414 49.7759 25.7918 49.2184 24.3917ZM48.446 25.9212C48.3636 26.1205 48.2261 26.2899 48.0509 26.408C47.8756 26.5262 47.6705 26.5878 47.4615 26.5851C47.2524 26.5824 47.0489 26.5155 46.8765 26.3928C46.7042 26.2701 46.5708 26.0972 46.4932 25.8959C46.4157 25.6946 46.3974 25.4739 46.4408 25.2619C46.4841 25.0498 46.5872 24.8559 46.7368 24.7045C46.8865 24.5532 47.0761 24.4513 47.2816 24.4116C47.4871 24.372 47.6993 24.3965 47.8915 24.482C48.149 24.5966 48.3522 24.8126 48.4562 25.0825C48.5602 25.3524 48.5565 25.6541 48.446 25.9212Z" fill="#AD4043"/>
<path d="M48.6075 28.9336C48.7802 29.0099 48.9415 29.1113 49.0867 29.2347L49.5832 29.602C49.6761 29.6743 49.7719 29.7435 49.8735 29.8279C49.9332 29.8747 49.9832 29.9335 50.0206 30.0007C50.058 30.0679 50.0821 30.1423 50.0913 30.2193C50.0942 30.2921 50.0754 30.3642 50.0375 30.4256C49.9996 30.487 49.9444 30.5348 49.8793 30.5625C49.7677 30.6107 49.6431 30.6161 49.528 30.5776C49.3529 30.5098 49.1838 30.4261 49.0228 30.3277C48.7324 30.1711 48.5263 30.0477 48.442 29.9874L48.4682 29.9603C48.4827 30.0025 48.4856 30.0236 48.4827 30.0266C48.4798 30.0296 48.4624 30.0266 48.4362 29.9784L48.4043 29.9362L48.4595 29.9513C48.5582 29.9844 48.776 30.0778 49.075 30.2193C49.2344 30.3015 49.3982 30.3739 49.5658 30.4361C49.7284 30.4933 49.9548 30.409 49.9403 30.2283C49.9258 30.0477 49.6674 29.87 49.499 29.7164L49.0228 29.325C48.8696 29.2124 48.7302 29.081 48.6075 28.9336Z" fill="#D78776"/>
<path d="M49.1071 28.1934C49.2991 28.2347 49.4822 28.3123 49.6472 28.4222C49.8371 28.5276 50.0088 28.665 50.1553 28.8287C50.2448 28.9267 50.3192 29.0384 50.376 29.1599C50.4147 29.2283 50.44 29.3039 50.4505 29.3824C50.461 29.461 50.4564 29.5409 50.437 29.6176C50.4213 29.6604 50.3971 29.6993 50.3661 29.732C50.3352 29.7646 50.298 29.7903 50.257 29.8072C50.1849 29.8361 50.1072 29.8464 50.0305 29.8374C49.9005 29.8187 49.7741 29.7791 49.6559 29.7199C49.459 29.6314 49.2744 29.516 49.1071 29.3767C48.8167 29.1388 48.7035 28.9371 48.718 28.925C48.7325 28.913 48.8835 29.0816 49.171 29.2894C49.3409 29.4081 49.5218 29.509 49.7111 29.5905C49.8165 29.6385 49.9279 29.671 50.0421 29.6868C50.1582 29.6868 50.2628 29.6627 50.2947 29.5664C50.3193 29.4512 50.3006 29.3306 50.2424 29.2291C50.1935 29.1194 50.1289 29.0179 50.0508 28.928C49.9182 28.7696 49.7636 28.6326 49.592 28.5216C49.4212 28.4275 49.2589 28.3176 49.1071 28.1934Z" fill="#D78776"/>
<path d="M51.3054 26.8359L48.7995 27.6007C48.6836 27.6211 48.5797 27.6869 48.5092 27.7844C48.4163 27.9651 48.5818 28.1788 48.7531 28.2812C49.1257 28.4908 49.5516 28.5759 49.9726 28.5251C50.3906 28.4668 50.802 28.3659 51.2009 28.224" fill="#E5BAAB"/>
<path d="M51.1982 28.238C51.13 28.2827 51.0556 28.3162 50.9775 28.3374C50.7712 28.413 50.5608 28.4763 50.3475 28.527C50.026 28.6051 49.6937 28.6235 49.366 28.5812C49.1703 28.5521 48.9802 28.4911 48.8027 28.4006C48.7013 28.3543 48.6104 28.2866 48.5356 28.2019C48.4902 28.1562 48.4552 28.1006 48.4332 28.0391C48.4111 27.9777 48.4024 27.9119 48.4078 27.8466C48.4235 27.781 48.4553 27.7207 48.5 27.6717C48.5448 27.6226 48.6011 27.5864 48.6633 27.5665C48.7679 27.5274 48.8637 27.5033 48.9537 27.4732L49.4996 27.3106L50.4317 27.0456C50.7157 26.9505 51.0072 26.881 51.3027 26.8379C51.0322 26.9612 50.7526 27.0619 50.4665 27.139L49.5431 27.4401L48.9973 27.6117C48.8143 27.6749 48.5733 27.7111 48.5559 27.8646C48.5553 27.9062 48.5629 27.9475 48.5784 27.9858C48.5939 28.0242 48.6169 28.0588 48.6459 28.0874C48.708 28.1574 48.7831 28.2137 48.8666 28.253C49.029 28.3389 49.2034 28.3979 49.3834 28.4277C49.6959 28.4754 50.0137 28.4693 50.3242 28.4096C50.8614 28.3163 51.1895 28.2109 51.1982 28.238Z" fill="#D78776"/>
<path d="M84.8168 76.2294C85.8697 76.3027 86.9211 76.064 87.8482 75.5412C88.7754 75.0185 89.5401 74.2332 90.0532 73.2769C90.5663 72.3206 90.8067 71.2328 90.7464 70.1402C90.686 69.0477 90.3274 67.9954 89.7123 67.1062C88.9254 65.965 87.7669 65.1641 86.6374 64.3963L82.5723 61.6172L83.8121 72.5139L84.8052 76.2355" fill="#AD4043"/>
<path d="M90.5898 69.0143C90.5395 69.1225 90.4648 69.2165 90.372 69.2883C90.1272 69.499 89.8359 69.6438 89.5242 69.7099C88.7402 69.9026 87.5904 69.7339 86.5218 69.1348C85.6239 68.6065 84.8148 67.9302 84.1263 67.1325C83.8563 66.8314 83.6472 66.5875 83.5049 66.4128C83.4254 66.3271 83.3544 66.2333 83.293 66.1328C83.3862 66.2023 83.471 66.2831 83.5456 66.3737L84.2018 67.0542C84.9035 67.8181 85.7085 68.4723 86.5915 68.9962C87.4701 69.52 88.4898 69.7315 89.4951 69.5984C89.7955 69.5458 90.0804 69.4233 90.3285 69.2401C90.5056 69.1077 90.5811 69.0053 90.5898 69.0143Z" fill="#263238"/>
<path d="M80.1749 49.306L80.4653 43.0943C80.4653 43.0943 78.4066 41.3088 79.0803 33.2816L78.0901 32.9805C78.0901 32.9805 77.4804 43.0853 72.5384 42.6427C67.5964 42.2001 69.3444 33.119 69.3444 33.119C68.8007 33.1494 68.2834 33.3714 67.878 33.7483C67.8403 33.7663 67.6602 37.0603 67.5615 39.8636C67.0191 40.8553 66.748 41.9817 66.7775 43.1214C66.8287 43.9897 67.1508 44.8171 67.6951 45.479C67.8287 47.3789 67.9622 49.9021 67.9622 49.9021L66.0371 55.069L66.4988 56.8906L80.6192 56.728L81.0373 54.7799L80.1749 49.306Z" fill="#455A64"/>
<path d="M78.0459 42.3337C77.9996 42.5525 77.9074 42.7581 77.7759 42.9359C77.5901 43.2369 77.41 43.4808 77.3752 43.4598C77.3403 43.4387 77.4594 43.1587 77.6452 42.8576C77.8311 42.5565 78.0111 42.3096 78.0459 42.3337Z" fill="white"/>
<path d="M78.6375 47.5579C78.6056 47.588 78.3472 47.3531 78.0307 47.031C77.8281 46.8527 77.6588 46.6374 77.5312 46.3957C77.5632 46.3625 77.8216 46.6004 78.1381 46.9196C78.3412 47.0985 78.5105 47.315 78.6375 47.5579Z" fill="white"/>
<path d="M70.4792 43.6348C70.0539 44.0439 69.5625 44.3721 69.0273 44.6043C69.4526 44.1952 69.944 43.867 70.4792 43.6348Z" fill="white"/>
<path d="M68.2546 43.2649C68.0212 43.2145 67.8011 43.1117 67.61 42.9638C67.2732 42.762 67.0293 42.5693 67.0293 42.5332C67.2626 42.5842 67.4825 42.6869 67.6739 42.8343C68.0194 43.036 68.275 43.2287 68.2546 43.2649Z" fill="white"/>
<path d="M68.3052 36.9941C68.3665 37.2674 68.3802 37.5499 68.3459 37.8282C68.3576 38.1078 68.3202 38.3874 68.2355 38.6532C68.1705 38.3815 68.1567 38.0993 68.1949 37.8222C68.1803 37.5414 68.2178 37.2603 68.3052 36.9941Z" fill="white"/>
<path d="M78.5573 38.0871C78.5951 38.1081 78.5196 38.34 78.3918 38.608C78.2641 38.8759 78.1276 39.0777 78.1015 39.0596C78.0753 39.0415 78.1392 38.8067 78.267 38.5387C78.3947 38.2707 78.5196 38.069 78.5573 38.0871Z" fill="white"/>
<path d="M73.3969 46.2655C73.2302 45.8432 73.1596 45.3868 73.1908 44.9316C73.3569 45.3541 73.4275 45.8104 73.3969 46.2655Z" fill="white"/>
<path d="M76.606 42.1753C76.6234 42.2144 76.4899 42.3198 76.3157 42.4071C76.1414 42.4945 75.9701 42.5396 75.9527 42.5005C75.9353 42.4613 76.0688 42.3559 76.2431 42.2656C76.4173 42.1753 76.5886 42.1361 76.606 42.1753Z" fill="white"/>
<path d="M80.0757 44.5122C80.0902 44.5513 79.9421 44.6386 79.7476 44.7019C79.553 44.7651 79.3846 44.7862 79.3701 44.747C79.3556 44.7079 79.5066 44.6175 79.7011 44.5543C79.8957 44.4911 80.0641 44.47 80.0757 44.5122Z" fill="white"/>
<path d="M69.5736 42.1009C69.5388 42.122 69.3761 41.9082 69.2106 41.6192C69.0451 41.3301 68.9406 41.0772 68.9754 41.0561C69.0103 41.035 69.1758 41.2488 69.3413 41.5379C69.5068 41.8269 69.6055 42.0799 69.5736 42.1009Z" fill="white"/>
<path d="M69.7744 46.586C69.7367 46.6041 69.6641 46.5108 69.5741 46.4114C69.484 46.312 69.4027 46.2217 69.4231 46.1826C69.4434 46.1434 69.577 46.1826 69.6844 46.306C69.7918 46.4295 69.8151 46.574 69.7744 46.586Z" fill="white"/>
<path d="M67.9668 53.7491C67.939 53.5321 67.9609 53.3113 68.0307 53.1047C68.1091 52.7585 68.2049 52.4875 68.2455 52.5026C68.2732 52.7198 68.2503 52.9407 68.1787 53.1469C68.1033 53.4871 68.0074 53.7581 67.9668 53.7491Z" fill="white"/>
<path d="M70.9989 53.8603C70.9698 53.8874 70.7463 53.6917 70.5023 53.4177C70.2584 53.1437 70.0871 52.8968 70.1191 52.8697C70.151 52.8426 70.3717 53.0383 70.6156 53.3123C70.8595 53.5863 71.025 53.8302 70.9989 53.8603Z" fill="white"/>
<path d="M69.6163 55.538C69.6163 55.5802 69.3579 55.538 69.0675 55.4206C68.7772 55.3032 68.5565 55.1948 68.571 55.1526C68.5855 55.1105 68.8294 55.1526 69.1198 55.2731C69.4101 55.3935 69.6308 55.4899 69.6163 55.538Z" fill="white"/>
<path d="M73.577 53.3971C73.5555 53.6209 73.4839 53.8364 73.368 54.0264C73.2141 54.3546 73.0573 54.6045 73.0195 54.5865C73.043 54.3627 73.1155 54.1474 73.2315 53.9572C73.3854 53.629 73.5393 53.3821 73.577 53.3971Z" fill="white"/>
<path d="M76.9804 54.1947C76.8723 54.4951 76.667 54.7473 76.3996 54.9083C76.1607 55.1082 75.8617 55.2148 75.5547 55.2094C75.5547 55.1642 75.9234 55.0498 76.3154 54.7668C76.7074 54.4837 76.9426 54.1706 76.9804 54.1947Z" fill="white"/>
<path d="M79.7576 55.188C79.4416 55.0241 79.1486 54.8164 78.8865 54.5708C78.592 54.3633 78.3271 54.114 78.0996 53.8301C78.4155 53.9879 78.7087 54.1906 78.9707 54.4323C79.2677 54.6423 79.5329 54.897 79.7576 55.188Z" fill="white"/>
<path d="M75.4019 50.2207C75.2102 50.4874 74.9801 50.722 74.7196 50.9162C74.4921 51.1506 74.2293 51.3449 73.9414 51.4913C74.1331 51.2246 74.3633 50.99 74.6238 50.7958C74.8512 50.5614 75.1141 50.3672 75.4019 50.2207Z" fill="white"/>
<path d="M71.1868 50.3709C70.9427 50.2101 70.7275 50.0063 70.5509 49.7687C70.3373 49.5722 70.1593 49.3377 70.0254 49.0762C70.2682 49.2315 70.4833 49.4291 70.6613 49.6603C70.8746 49.864 71.0524 50.1044 71.1868 50.3709Z" fill="white"/>
<path d="M75.1826 48.2628C74.9559 48.4098 74.7048 48.5119 74.4422 48.5639C74.192 48.664 73.9264 48.716 73.6582 48.7174C74.1336 48.4656 74.651 48.3103 75.1826 48.2598V48.2628Z" fill="white"/>
<path d="M78.8646 50.9732C78.6797 50.764 78.534 50.521 78.4349 50.2566C78.2931 50.015 78.1947 49.7487 78.1445 49.4707C78.3294 49.6798 78.4752 49.9229 78.5743 50.1873C78.7161 50.4289 78.8145 50.6952 78.8646 50.9732Z" fill="white"/>
<path d="M68.4913 49.3867C68.539 49.6504 68.539 49.921 68.4913 50.1846C68.4904 50.453 68.4401 50.7187 68.3432 50.9675C68.2919 50.7042 68.2919 50.4329 68.3432 50.1696C68.3426 49.9011 68.3929 49.6351 68.4913 49.3867Z" fill="white"/>
<path d="M68.9467 26.9004C68.2303 27.0141 67.499 26.9741 66.798 26.783C66.4519 26.6828 66.1312 26.5053 65.8583 26.2629C65.5855 26.0205 65.367 25.7191 65.2184 25.3799C65.0781 25.0341 65.0536 24.6495 65.1489 24.2877C65.2442 23.9258 65.4537 23.6075 65.744 23.3836C66.0343 23.1909 66.4147 23.0825 66.5483 22.7543C66.6819 22.4261 66.4409 22.0016 66.2724 21.6432C66.0499 21.1653 65.9809 20.6261 66.0754 20.1045C66.1699 19.5829 66.423 19.1064 66.7977 18.7448C67.1723 18.3833 67.6488 18.1556 68.1573 18.0953C68.6657 18.0349 69.1795 18.145 69.6232 18.4095C69.6914 17.583 70.0527 16.8122 70.6372 16.246C71.2218 15.6798 71.988 15.3585 72.7878 15.3442C73.5876 15.33 74.364 15.6238 74.9669 16.1689C75.5699 16.714 75.9565 17.4715 76.0519 18.295C76.1071 18.7738 76.0693 19.2887 76.3045 19.7072C76.5717 20.1829 77.1204 20.3997 77.4921 20.7942C78.2151 21.562 78.1164 22.8205 77.7825 23.8383C77.4486 24.856 76.9288 25.8496 76.9607 26.9245" fill="#263238"/>
<path d="M71.7067 32.8782C71.637 31.8154 71.5586 30.8458 71.5586 30.8458C71.5586 30.8458 69.4273 30.6682 69.2357 28.4822C69.0441 26.2963 69.0673 21.2559 69.0673 21.2559L72.8943 19.1934L76.759 22.4392L76.8287 32.6765C76.8341 33.3534 76.5905 34.0069 76.1477 34.5042C75.7048 35.0014 75.0959 35.305 74.4448 35.3533C73.7653 35.4012 73.0952 35.1675 72.5818 34.7034C72.0684 34.2393 71.7536 33.5828 71.7067 32.8782Z" fill="#E5BAAB"/>
<path d="M69.5887 24.9164C69.5926 24.9709 69.6119 25.0231 69.6442 25.0664C69.6764 25.1097 69.7202 25.1422 69.7701 25.16C69.82 25.1778 69.8738 25.1801 69.9249 25.1665C69.976 25.153 70.0222 25.1242 70.0577 25.0837C70.0932 25.0433 70.1165 24.9929 70.1247 24.9389C70.1329 24.8848 70.1257 24.8295 70.1039 24.7796C70.0821 24.7298 70.0467 24.6877 70.0021 24.6585C69.9575 24.6293 69.9056 24.6143 69.8529 24.6153C69.8161 24.616 69.7799 24.6245 69.7465 24.6402C69.713 24.6559 69.6829 24.6786 69.6582 24.7068C69.6335 24.735 69.6145 24.7681 69.6026 24.8041C69.5906 24.8402 69.5859 24.8784 69.5887 24.9164Z" fill="#263238"/>
<path d="M69.3196 24.6177C69.3544 24.6538 69.549 24.4731 69.8393 24.449C70.1297 24.425 70.3533 24.5665 70.3823 24.5243C70.4113 24.4822 70.3591 24.44 70.2603 24.3738C70.1295 24.2917 69.9769 24.2548 69.8246 24.2684C69.6723 24.2819 69.528 24.3451 69.4125 24.449C69.3283 24.5303 69.3021 24.6026 69.3196 24.6177Z" fill="#263238"/>
<path d="M72.7169 24.8389C72.7173 24.8758 72.7248 24.9123 72.7389 24.9461C72.7531 24.98 72.7736 25.0106 72.7993 25.0361C72.825 25.0616 72.8553 25.0816 72.8886 25.0948C72.9218 25.108 72.9572 25.1141 72.9928 25.1129C73.0644 25.1129 73.1331 25.0834 73.1837 25.0309C73.2344 24.9784 73.2628 24.9072 73.2628 24.8329C73.2628 24.7586 73.2344 24.6874 73.1837 24.6349C73.1331 24.5824 73.0644 24.5529 72.9928 24.5529C72.9562 24.5516 72.9198 24.5582 72.8858 24.5721C72.8518 24.586 72.8209 24.6071 72.795 24.6339C72.7692 24.6607 72.7489 24.6927 72.7355 24.728C72.722 24.7633 72.7157 24.801 72.7169 24.8389Z" fill="#263238"/>
<path d="M72.5399 24.536C72.5777 24.5722 72.7722 24.3915 73.0626 24.3674C73.353 24.3433 73.5736 24.4848 73.6027 24.4427C73.6317 24.4005 73.5795 24.3584 73.4836 24.2921C73.3565 24.2082 73.2074 24.1671 73.0568 24.1747C72.9038 24.1856 72.7587 24.2492 72.6445 24.3554C72.5516 24.4487 72.5225 24.521 72.5399 24.536Z" fill="#263238"/>
<path d="M71.5538 27.1069C71.3967 27.1429 71.2354 27.156 71.0747 27.1461C71.0324 27.1533 70.9893 27.1533 70.947 27.1461C70.9194 27.1386 70.8937 27.1251 70.8717 27.1064C70.8496 27.0877 70.8317 27.0642 70.8192 27.0377C70.7917 26.9319 70.7988 26.8196 70.8395 26.7185C70.8976 26.5198 70.9557 26.309 71.0167 26.0862C71.1506 25.539 71.3254 25.0035 71.5393 24.4844C71.4441 25.041 71.3092 25.5895 71.1357 26.1254C71.0718 26.3452 71.0109 26.5529 70.9499 26.7547C70.9166 26.8299 70.9045 26.9134 70.915 26.9955C70.9296 27.0497 71.0022 27.0588 71.0747 27.0618C71.2356 27.0571 71.3964 27.0723 71.5538 27.1069Z" fill="#263238"/>
<path d="M72.5584 27.3543C72.5788 27.3302 71.7193 27.8932 71.127 27.9083C71.2366 28.0588 71.3921 28.1663 71.5683 28.2134C71.7444 28.2604 71.9307 28.2441 72.0968 28.1672C72.2582 28.1167 72.3953 28.005 72.4808 27.8543C72.5664 27.7037 72.5941 27.5251 72.5584 27.3543Z" fill="white"/>
<path d="M71.5586 30.8447C72.5604 30.7769 73.5226 30.4133 74.3316 29.7969C74.3316 29.7969 73.7363 31.4198 71.6196 31.3806L71.5586 30.8447Z" fill="#D78776"/>
<path d="M68.1211 21.9117C68.7831 22.55 69.8226 22.6403 70.6705 22.3151C71.5134 21.9456 72.2397 21.3385 72.7669 20.5627C73.1353 20.9359 73.5878 21.2077 74.0832 21.3534C74.5786 21.499 75.1014 21.5139 75.6038 21.3968C75.7548 23.387 76.0887 24.6035 76.8088 26.5997C76.8088 26.5997 76.6404 27.4699 76.8959 27.3495C77.1427 25.9705 77.3779 24.5011 77.6247 23.1341C77.7118 22.6343 77.7989 22.0983 77.6073 21.6286C77.4157 21.1589 76.922 20.8187 76.4981 20.4965C75.9725 20.096 75.4905 19.6324 74.9563 19.2469C74.4339 18.8339 73.8142 18.5739 73.1618 18.4942C72.4949 18.4908 71.8342 18.627 71.2193 18.8947C70.4883 19.1059 69.7998 19.4517 69.1867 19.9154C68.606 20.4152 68.1937 21.2101 68.3447 21.9779" fill="#263238"/>
<path d="M76.7715 24.5163C76.9837 24.4133 77.2117 24.3501 77.4451 24.3296C77.5631 24.3218 77.681 24.3453 77.7877 24.398C77.8944 24.4507 77.9864 24.5308 78.0549 24.6307C78.1414 24.79 78.1633 24.9785 78.1159 25.1546C78.0825 25.2967 78.019 25.4293 77.93 25.5428C77.841 25.6563 77.7288 25.7478 77.6014 25.8106C77.4741 25.8735 77.3348 25.9061 77.1937 25.9062C77.0527 25.9063 76.9134 25.8737 76.786 25.811" fill="#E5BAAB"/>
<path d="M73.7667 23.9824C73.7986 23.9824 73.8218 24.133 73.7057 24.2594C73.5895 24.3859 73.4385 24.3678 73.4414 24.3317C73.4444 24.2956 73.5373 24.2594 73.6157 24.1691C73.6941 24.0788 73.7289 23.9824 73.7667 23.9824Z" fill="#263238"/>
<path d="M66.2394 58.8017L62.5866 115.914C62.3165 115.965 58.8902 116.639 58.9803 117.157C59.0703 117.675 67.758 117.374 67.758 117.374L72.8684 67.7443L80.8215 58.0098L66.2394 58.8017Z" fill="#E5BAAB"/>
<path d="M67.6641 116.94C67.6641 117.027 65.6664 117.081 63.2041 117.06C60.7419 117.039 58.7412 116.952 58.7441 116.864C58.747 116.777 60.7419 116.726 63.2041 116.747C65.6664 116.768 67.6641 116.852 67.6641 116.94Z" fill="#263238"/>
<path d="M61.6571 117.037C61.6136 117.037 61.5439 116.693 61.2971 116.353C61.0503 116.013 60.7541 115.835 60.7744 115.793C61.0307 115.873 61.2546 116.038 61.4119 116.263C61.5692 116.487 61.6512 116.759 61.6455 117.037H61.6571Z" fill="#263238"/>
<path d="M67.8301 115.449C66.2988 115.397 64.7976 115.897 63.582 116.864C63.7219 116.679 63.8907 116.519 64.0815 116.392C64.5236 116.059 65.0136 115.801 65.5333 115.627C66.0555 115.451 66.6016 115.364 67.1506 115.368C67.3799 115.356 67.6095 115.383 67.8301 115.449Z" fill="#263238"/>
<path d="M67.8591 114.827C66.9645 114.879 66.0678 114.879 65.1732 114.827C64.2769 114.829 63.3811 114.778 62.4902 114.676C63.3848 114.624 64.2815 114.624 65.1761 114.676C66.0724 114.675 66.9681 114.726 67.8591 114.827Z" fill="#263238"/>
<path d="M67.9142 113.839C67.0146 113.941 66.1102 113.991 65.2051 113.99C64.3009 114.044 63.3944 114.044 62.4902 113.99C63.39 113.889 64.2944 113.839 65.1993 113.839C66.1036 113.788 67.0099 113.788 67.9142 113.839Z" fill="#263238"/>
<path d="M58.8287 116.883C58.7944 116.97 58.7941 117.067 58.8277 117.154C58.8613 117.241 58.9262 117.312 59.0088 117.35C59.1816 117.413 59.3702 117.413 59.543 117.35C59.7148 117.29 59.8935 117.253 60.0744 117.241C60.449 117.241 60.7916 117.543 61.1633 117.491C61.3868 117.464 61.5843 117.314 61.805 117.278C62.197 117.217 62.5657 117.518 62.9664 117.515C63.3671 117.512 63.7301 117.214 64.1279 117.238C64.5257 117.263 64.7986 117.573 65.1616 117.579C65.4519 117.579 65.7075 117.401 65.992 117.389C66.3811 117.374 66.747 117.672 67.1302 117.597C67.2071 117.582 67.2798 117.55 67.3432 117.503C67.4065 117.455 67.4587 117.394 67.4961 117.323C67.5318 117.25 67.5454 117.168 67.535 117.088C67.5247 117.007 67.4908 116.931 67.438 116.871" fill="#263238"/>
<path d="M66.5196 113.949C66.5196 113.964 66.3454 113.885 66.1421 113.663C66.0217 113.529 65.9332 113.368 65.8837 113.193C65.8554 113.086 65.8437 112.975 65.8488 112.865C65.8495 112.799 65.8635 112.733 65.8901 112.673C65.9166 112.613 65.955 112.559 66.0027 112.515C66.0349 112.492 66.0721 112.477 66.1112 112.472C66.1503 112.468 66.1898 112.473 66.2263 112.488C66.2855 112.515 66.3374 112.556 66.3773 112.609C66.4425 112.7 66.4934 112.802 66.5283 112.91C66.5898 113.081 66.6117 113.264 66.5922 113.446C66.5515 113.747 66.4238 113.91 66.4121 113.897C66.4005 113.885 66.476 113.723 66.4847 113.44C66.4884 113.276 66.4597 113.113 66.4005 112.961C66.3647 112.875 66.3179 112.794 66.2612 112.72C66.2031 112.648 66.1363 112.615 66.0898 112.657C66.0308 112.72 65.9975 112.804 65.9969 112.892C65.9905 112.985 65.9973 113.078 66.0173 113.169C66.0566 113.327 66.1268 113.476 66.2234 113.605C66.3802 113.816 66.537 113.928 66.5196 113.949Z" fill="#263238"/>
<path d="M66.513 113.763C66.4955 113.763 66.4781 113.607 66.5972 113.396C66.6694 113.273 66.769 113.17 66.8875 113.095C66.9597 113.053 67.0369 113.022 67.1169 113.001C67.1737 112.987 67.2336 112.994 67.2853 113.023C67.3151 113.042 67.3381 113.071 67.3511 113.105C67.3642 113.139 67.3665 113.177 67.3579 113.212C67.3385 113.372 67.2725 113.522 67.1688 113.642C67.065 113.762 66.9284 113.846 66.7772 113.884C66.5449 113.935 66.4084 113.863 66.4142 113.848C66.42 113.832 66.5565 113.848 66.7482 113.778C66.8695 113.733 66.9766 113.655 67.058 113.552C67.1394 113.448 67.1919 113.323 67.2098 113.191C67.2098 113.152 67.2098 113.155 67.2098 113.155C67.1889 113.149 67.1669 113.149 67.146 113.155C66.9627 113.194 66.7996 113.301 66.6872 113.456C66.5594 113.628 66.5362 113.766 66.513 113.763Z" fill="#263238"/>
<path d="M84.872 113.874L84.7965 113.896L82.4097 93.9117L80.1536 58.9844L73.5768 65.4369C73.4142 65.753 75.6413 93.5985 76.1146 95.5466C76.5618 97.3773 79.3464 113.218 79.6832 115.133C79.2912 115.338 76.3527 116.882 76.5705 117.34C76.7883 117.798 85.0694 115.052 85.0694 115.052L84.872 113.874Z" fill="#E5BAAB"/>
<path d="M85.1086 115.108C85.1318 115.192 83.2241 115.812 80.849 116.493C78.4738 117.173 76.5313 117.658 76.508 117.574C76.4848 117.489 78.3954 116.872 80.7706 116.189C83.1457 115.505 85.0883 115.011 85.1086 115.108Z" fill="#263238"/>
<path d="M79.3587 116.896C79.3181 116.914 79.1555 116.595 78.8303 116.339C78.5051 116.083 78.1711 115.995 78.1799 115.947C78.4494 115.95 78.7107 116.044 78.9236 116.215C79.1366 116.387 79.2895 116.626 79.3587 116.896Z" fill="#263238"/>
<path d="M84.8769 113.602C84.1481 113.819 83.4516 114.139 82.8066 114.553C82.1899 115.011 81.6377 115.557 81.166 116.173C81.2508 115.952 81.3716 115.749 81.5232 115.571C82.2053 114.671 83.1461 114.02 84.209 113.713C84.4244 113.639 84.6499 113.601 84.8769 113.602Z" fill="#263238"/>
<path d="M84.7346 113C83.8876 113.306 83.0249 113.562 82.1504 113.768C81.2911 114.02 80.4186 114.221 79.5371 114.37C80.3844 114.066 81.2471 113.811 82.1213 113.605C82.9808 113.353 83.8533 113.151 84.7346 113Z" fill="#263238"/>
<path d="M84.5258 112.039C83.6873 112.394 82.8304 112.701 81.959 112.957C81.1024 113.263 80.2299 113.518 79.3457 113.722C80.1842 113.371 81.0412 113.07 81.9125 112.819C82.7696 112.511 83.642 112.251 84.5258 112.039Z" fill="#263238"/>
<path d="M76.5966 117.549C76.585 117.642 76.6089 117.735 76.6633 117.81C76.7176 117.884 76.798 117.933 76.887 117.947C77.0714 117.969 77.2576 117.923 77.4125 117.817C77.5619 117.711 77.7239 117.625 77.8945 117.561C78.2575 117.459 78.664 117.646 79.0095 117.492C79.2186 117.402 79.3667 117.191 79.5729 117.104C79.9329 116.932 80.3655 117.104 80.7343 117.004C81.1031 116.905 81.3876 116.489 81.7796 116.402C82.1716 116.315 82.5142 116.535 82.8685 116.435C83.1414 116.36 83.3447 116.11 83.6147 116.02C83.9835 115.893 84.4161 116.074 84.7762 115.893C84.8487 115.86 84.9126 115.809 84.963 115.745C85.0134 115.681 85.0488 115.606 85.0665 115.526C85.0813 115.446 85.0723 115.363 85.0406 115.288C85.009 115.213 84.9563 115.15 84.8894 115.107" fill="#263238"/>
<path d="M83.2216 112.541C83.0623 112.528 82.9096 112.47 82.7802 112.373C82.6283 112.28 82.5007 112.149 82.4086 111.993C82.3524 111.901 82.3122 111.799 82.2895 111.692C82.2728 111.628 82.2691 111.562 82.2786 111.496C82.2881 111.431 82.3106 111.369 82.3447 111.313C82.3683 111.28 82.3999 111.255 82.4361 111.239C82.4723 111.223 82.5118 111.217 82.5508 111.222C82.6151 111.232 82.6761 111.257 82.7279 111.298C82.8136 111.363 82.8891 111.441 82.9515 111.53C83.0551 111.678 83.1246 111.849 83.1548 112.029C83.1963 112.192 83.1766 112.366 83.0996 112.514C83.0735 112.514 83.117 112.328 83.0503 112.051C83.008 111.893 82.9371 111.746 82.8412 111.617C82.7841 111.544 82.7177 111.479 82.6437 111.424C82.5683 111.37 82.4957 111.358 82.4637 111.409C82.4222 111.486 82.4118 111.577 82.4347 111.662C82.4529 111.754 82.4842 111.842 82.5276 111.924C82.6074 112.065 82.7141 112.188 82.8412 112.285C83.0561 112.451 83.2216 112.517 83.2216 112.541Z" fill="#263238"/>
<path d="M83.1568 112.366C83.1568 112.366 83.0842 112.225 83.1568 111.987C83.1934 111.85 83.2622 111.725 83.3571 111.622C83.4155 111.561 83.482 111.508 83.5546 111.466C83.6048 111.436 83.6636 111.427 83.7201 111.439C83.7532 111.45 83.7823 111.471 83.8036 111.499C83.8248 111.528 83.8372 111.562 83.8391 111.598C83.8632 111.758 83.8397 111.921 83.7717 112.067C83.7038 112.212 83.5945 112.332 83.4588 112.411C83.2497 112.526 83.0987 112.496 83.1016 112.48C83.1045 112.465 83.2352 112.441 83.392 112.318C83.4975 112.241 83.5804 112.135 83.6317 112.013C83.6829 111.89 83.7004 111.755 83.6823 111.622C83.6823 111.583 83.6823 111.586 83.6823 111.589C83.66 111.587 83.6377 111.592 83.6185 111.604C83.4548 111.696 83.3274 111.844 83.2584 112.023C83.1684 112.222 83.1829 112.363 83.1568 112.366Z" fill="#263238"/>
<path d="M80.6074 55.6328L66.487 55.7984L62.0096 75.5323C62.0096 75.5323 60.9091 80.3499 66.4173 80.5818C71.9256 80.8136 74.5185 78.3145 79.115 80.1542C82.0999 81.3586 86.4263 79.1214 86.2144 78.6126C83.6621 72.5214 83.7202 63.7835 80.6074 55.6328Z" fill="#263238"/>
<path d="M84.9103 79.9873C84.9103 79.9873 84.8871 79.903 84.8522 79.7434C84.8174 79.5838 84.768 79.3429 84.6896 79.0419C84.4518 78.1956 84.1548 77.3684 83.8011 76.5668C83.2458 75.3792 82.7609 74.1575 82.3493 72.9085C81.9229 71.3535 81.6763 69.7515 81.6147 68.1361C81.5189 66.4198 81.5131 64.7849 81.4172 63.3185C81.3523 61.9997 81.1725 60.6896 80.8801 59.4043C80.6807 58.5425 80.3946 57.7049 80.0264 56.9052C79.8957 56.6221 79.7854 56.4084 79.7041 56.2668C79.6595 56.1959 79.6225 56.1202 79.5938 56.041C79.6432 56.1074 79.6888 56.1768 79.7302 56.2488C79.8574 56.4517 79.9738 56.6618 80.0787 56.8781C80.473 57.6701 80.7779 58.5067 80.9875 59.3712C81.2964 60.6547 81.4908 61.965 81.5682 63.2854C81.6728 64.7728 81.6815 66.4078 81.7773 68.103C81.8367 69.7091 82.0765 71.3027 82.4916 72.8513C82.8948 74.096 83.365 75.3164 83.8998 76.5066C84.2519 77.3187 84.5384 78.1596 84.7564 79.0208C84.8261 79.3219 84.8755 79.5658 84.8958 79.7314C84.9088 79.816 84.9137 79.9017 84.9103 79.9873Z" fill="#455A64"/>
<path d="M71.7366 63.7671C71.7366 63.7671 71.7163 63.7912 71.6611 63.8123C71.5803 63.8427 71.4936 63.852 71.4085 63.8394C71.2515 63.8097 71.1053 63.7359 70.986 63.626C70.8667 63.5161 70.7788 63.3743 70.7319 63.2161C70.629 62.7554 70.6015 62.2801 70.6506 61.8099C70.6652 61.28 70.6826 60.7049 70.7 60.1027C70.7406 58.8983 70.7842 57.7963 70.8219 57.0014C70.8452 56.6311 70.8626 56.3179 70.8771 56.062C70.8796 55.9465 70.8932 55.8315 70.9178 55.7188C70.9383 55.8329 70.9442 55.9493 70.9352 56.065C70.9352 56.3209 70.9352 56.6341 70.9352 57.0044C70.9352 57.7993 70.8974 58.8953 70.8568 60.1088C70.8365 60.7109 70.8161 61.286 70.7958 61.813C70.7419 62.2682 70.7566 62.7294 70.8394 63.1799C70.8762 63.3246 70.9493 63.4565 71.0513 63.5623C71.1534 63.6681 71.2806 63.744 71.4201 63.7821C71.5256 63.7972 71.6329 63.7921 71.7366 63.7671Z" fill="#455A64"/>
<path d="M71.7065 56.4833C71.6891 56.4833 71.8227 56.3629 72.0346 56.4592C72.0948 56.4867 72.1481 56.5282 72.1904 56.5804C72.2326 56.6326 72.2628 56.6941 72.2786 56.7603C72.2915 56.849 72.2754 56.9397 72.2328 57.0178C72.1901 57.0959 72.1234 57.1568 72.0434 57.1909C71.9664 57.2333 71.8777 57.2465 71.7924 57.2284C71.7071 57.2103 71.6305 57.1619 71.5759 57.0915C71.5403 57.0302 71.5215 56.9599 71.5215 56.8883C71.5215 56.8167 71.5403 56.7464 71.5759 56.6851C71.5952 56.6439 71.6228 56.6076 71.6569 56.5785C71.691 56.5494 71.7307 56.5282 71.7733 56.5164C71.8343 56.5014 71.8662 56.5164 71.8662 56.5164C71.8662 56.5164 71.7327 56.5496 71.6746 56.7242C71.6577 56.7681 71.651 56.8155 71.655 56.8626C71.659 56.9096 71.6737 56.9551 71.6978 56.9952C71.7347 57.0348 71.7834 57.0605 71.836 57.0681C71.8886 57.0757 71.9422 57.0649 71.9882 57.0373C72.039 57.0179 72.0824 56.9818 72.1117 56.9346C72.1411 56.8873 72.1548 56.8314 72.1508 56.7754C72.1426 56.7268 72.1244 56.6806 72.0973 56.6401C72.0702 56.5995 72.035 56.5656 71.994 56.5405C71.8343 56.4592 71.7123 56.5074 71.7065 56.4833Z" fill="#455A64"/>
<path d="M80.9341 59.5426C80.853 59.568 80.7689 59.5811 80.6843 59.5818C80.4532 59.5962 80.2215 59.5962 79.9904 59.5818C79.2174 59.5575 78.4659 59.3127 77.8184 58.8742C77.4989 58.6444 77.23 58.3467 77.0298 58.001C76.8296 57.6553 76.7025 57.2694 76.657 56.8689C76.632 56.6264 76.6517 56.3811 76.7151 56.1462C76.7316 56.0588 76.7652 55.9758 76.8138 55.9023C76.749 56.2158 76.7314 56.5378 76.7615 56.8568C76.8208 57.2352 76.9529 57.5973 77.1499 57.9217C77.347 58.246 77.6049 58.5259 77.9085 58.7447C78.5357 59.1667 79.2561 59.4164 80.002 59.4704C80.574 59.5336 80.9341 59.5155 80.9341 59.5426Z" fill="#263238"/>
<path d="M67.6536 55.6641C67.6536 55.6641 67.6855 55.7393 67.7146 55.8809C67.7476 56.0799 67.767 56.2811 67.7726 56.483C67.7896 57.1693 67.6741 57.8521 67.4329 58.4914C67.221 59.1494 66.8247 59.727 66.2947 60.1504C66.125 60.2693 65.9313 60.3466 65.7285 60.3762C65.656 60.3949 65.5803 60.3949 65.5078 60.3762C65.7685 60.3337 66.0166 60.2308 66.2337 60.0751C66.7205 59.6409 67.0864 59.0795 67.2936 58.4492C67.5249 57.8259 67.6506 57.1658 67.6652 56.4981C67.6797 55.9862 67.6275 55.6671 67.6536 55.6641Z" fill="#263238"/>
<path d="M85.7072 77.4687C85.4886 77.7155 85.2385 77.9302 84.9639 78.107C84.2149 78.5942 83.3709 78.9028 82.4929 79.0103C81.1933 79.1599 79.879 79.0949 78.5991 78.8176C77.1473 78.5647 75.5793 78.1492 73.8952 78.1341C72.2111 78.1191 70.6547 78.652 69.2494 79.0374C68.5815 79.2291 67.9026 79.3769 67.2168 79.48C66.6119 79.5589 66.0007 79.571 65.3933 79.5161C64.5081 79.4533 63.6542 79.1512 62.9165 78.64C62.8026 78.5592 62.6939 78.4707 62.5913 78.375C62.5139 78.307 62.4412 78.2336 62.3735 78.1552C62.3153 78.0936 62.261 78.0283 62.2109 77.9595C62.4434 78.1867 62.6908 78.397 62.9514 78.5888C63.689 79.0731 64.5333 79.3549 65.4049 79.4078C66.0044 79.4535 66.6067 79.4343 67.2023 79.3505C67.8879 79.2423 68.5667 79.0915 69.2348 78.8989C70.646 78.5195 72.2082 77.9715 73.9271 77.9956C75.6461 78.0197 77.217 78.4352 78.6543 78.6942C79.9207 78.9754 81.2216 79.0505 82.5103 78.917C83.378 78.8199 84.2156 78.5314 84.9668 78.0709C85.4575 77.7096 85.6927 77.4416 85.7072 77.4687Z" fill="#263238"/>
<path d="M80.2416 56.1217C80.2039 56.1458 80.1226 56.0796 80.0587 55.9772C79.9948 55.8748 79.9716 55.7694 80.0064 55.7453C80.0413 55.7213 80.1226 55.7845 80.1864 55.8899C80.2503 55.9953 80.2765 56.0916 80.2416 56.1217Z" fill="#455A64"/>
<path d="M81.0313 57.8012C80.9936 57.8193 80.8833 57.6386 80.7845 57.4038C80.6858 57.1689 80.6365 56.9642 80.6713 56.9431C80.7061 56.922 80.8223 57.1027 80.921 57.3435C81.0197 57.5844 81.072 57.7861 81.0313 57.8012Z" fill="#455A64"/>
<path d="M81.56 59.5946C81.5193 59.5946 81.4351 59.4109 81.3712 59.161C81.3073 58.9111 81.287 58.7034 81.3277 58.6883C81.3683 58.6733 81.4525 58.869 81.5164 59.1219C81.5803 59.3748 81.6006 59.5826 81.56 59.5946Z" fill="#455A64"/>
<path d="M81.8845 61.4325C81.8438 61.4325 81.7799 61.2368 81.7393 60.9808C81.6986 60.7249 81.7044 60.5171 81.7393 60.5081C81.7741 60.4991 81.8438 60.7008 81.8845 60.9567C81.9251 61.2127 81.9251 61.4264 81.8845 61.4325Z" fill="#455A64"/>
<path d="M82.0588 63.2929C82.0181 63.2929 81.9659 63.0912 81.9455 62.8352C81.9252 62.5793 81.9455 62.3655 81.9833 62.3595C82.021 62.3535 82.0733 62.5612 82.0965 62.8202C82.1198 63.0791 82.111 63.2899 82.0588 63.2929Z" fill="#455A64"/>
<path d="M82.1724 65.163C82.1289 65.163 82.0882 64.9583 82.0737 64.6993C82.0592 64.4404 82.0737 64.2296 82.1259 64.2266C82.1782 64.2236 82.2131 64.4344 82.2247 64.6933C82.2363 64.9522 82.2131 65.163 82.1724 65.163Z" fill="#455A64"/>
<path d="M82.263 67.033C82.2224 67.033 82.1759 66.8283 82.1643 66.5693C82.1527 66.3104 82.1643 66.0996 82.2137 66.0996C82.263 66.0996 82.3008 66.3044 82.3153 66.5633C82.3298 66.8222 82.3037 67.03 82.263 67.033Z" fill="#455A64"/>
<path d="M82.4077 68.9002C82.3641 68.9002 82.3119 68.6985 82.2886 68.4426C82.2654 68.1866 82.2886 67.9698 82.3235 67.9668C82.3583 67.9638 82.4164 68.1716 82.4396 68.4275C82.4629 68.6834 82.4483 68.8942 82.4077 68.9002Z" fill="#455A64"/>
<path d="M82.668 70.7526C82.6273 70.7526 82.5605 70.5599 82.5199 70.304C82.4792 70.0481 82.4763 69.8343 82.5199 69.8283C82.5634 69.8222 82.6302 70.024 82.6709 70.2769C82.7115 70.5298 82.7086 70.7436 82.668 70.7526Z" fill="#455A64"/>
<path d="M83.1154 72.5636C83.0777 72.5786 82.9877 72.3859 82.918 72.136C82.8483 71.8861 82.8251 71.6754 82.8657 71.6663C82.9064 71.6573 82.9935 71.847 83.0632 72.0939C83.1328 72.3408 83.1561 72.5515 83.1154 72.5636Z" fill="#455A64"/>
<path d="M83.8012 74.2934C83.7663 74.3144 83.6415 74.1428 83.537 73.9049C83.4324 73.6671 83.3831 73.4593 83.4208 73.4443C83.4586 73.4292 83.5718 73.6038 83.6734 73.8387C83.7751 74.0736 83.8477 74.2723 83.8012 74.2934Z" fill="#455A64"/>
<path d="M84.6728 75.938C84.6351 75.959 84.5073 75.7934 84.3825 75.5676C84.2576 75.3418 84.1937 75.14 84.2315 75.119C84.2692 75.0979 84.3941 75.2665 84.5219 75.4923C84.6496 75.7181 84.7106 75.9199 84.6728 75.938Z" fill="#455A64"/>
<path d="M85.4091 77.6448C85.3684 77.6599 85.2639 77.4762 85.1739 77.2384C85.0839 77.0005 85.0403 76.7927 85.0781 76.7747C85.1158 76.7566 85.2203 76.9403 85.3133 77.1811C85.4062 77.422 85.4497 77.6328 85.4091 77.6448Z" fill="#455A64"/>
<path d="M85.6572 79.0075C85.6136 79.0075 85.573 78.9112 85.5614 78.7907C85.5498 78.6703 85.5759 78.5649 85.6165 78.5589C85.6572 78.5528 85.7007 78.6492 85.7124 78.7757C85.724 78.9021 85.6978 79.0075 85.6572 79.0075Z" fill="#455A64"/>
<path d="M69.9004 32.958C69.9004 32.958 77.9377 59.8039 83.1061 63.8175L82.6996 61.4599C79.5898 55.8234 75.8616 44.8996 71.7035 32.8195C71.358 32.5395 70.0543 32.6419 69.9004 32.958Z" fill="#AD4043"/>
<path d="M80.2933 42.8974L83.0779 49.3228C79.0447 49.2987 74.6312 48.3352 72.7786 47.8173C72.6364 47.6758 72.4883 47.5162 72.3112 47.3325C72.1153 47.1165 71.9554 46.8682 71.8379 46.5979C71.6795 46.2682 71.5652 45.9177 71.4981 45.5561C71.4691 45.2219 71.0684 45.0894 70.9174 45.3483C70.7664 45.6073 70.8303 46.5376 71.3442 47.4861C71.8582 48.4346 70.3454 47.7872 69.7908 47.5764C69.2362 47.3657 67.4853 46.7484 67.2879 46.8719C66.9975 47.0555 67.1369 47.4199 67.6973 47.6276C68.2577 47.8354 69.8982 48.5881 69.7763 48.8892C69.6543 49.1903 66.8436 48.01 66.8436 48.01C66.8436 48.01 66.2629 47.6577 66.1293 48.01C65.8593 48.6303 68.9342 49.648 69.2304 49.7353C69.4336 49.7985 69.3146 50.1297 69.0997 50.0515C68.8849 49.9732 66.3151 48.8109 66.0335 49.4493C65.8186 49.931 68.5567 50.3104 68.9691 50.8584C69.3814 51.4064 66.9133 50.3495 66.7275 50.8193C66.6578 50.9939 66.6287 51.1204 68.1241 51.5298C69.3387 51.788 70.5658 51.978 71.8001 52.0989C74.1724 52.8185 80.0087 54.2066 84.2538 54.0771C84.2538 54.0771 90.2731 54.1855 89.2307 50.4098C88.1099 46.363 84.9042 40.1875 84.9042 40.1875L80.2933 42.8974Z" fill="#E5BAAB"/>
<path d="M77.1219 25.6816C77.0658 25.6739 77.0089 25.6895 76.9638 25.725C76.9186 25.7606 76.8889 25.8131 76.8809 25.8713C76.8802 25.9 76.8849 25.9286 76.8949 25.9554C76.9049 25.9822 76.9199 26.0067 76.9391 26.0274C76.9582 26.0482 76.9812 26.0647 77.0066 26.0762C77.032 26.0876 77.0594 26.0937 77.0871 26.0941C77.115 26.0913 77.142 26.0824 77.1665 26.0682C77.1909 26.054 77.2123 26.0347 77.2292 26.0115C77.2461 25.9883 77.2582 25.9617 77.2647 25.9335C77.2712 25.9052 77.2721 25.8758 77.2671 25.8472C77.2588 25.8198 77.2451 25.7945 77.2267 25.773C77.2084 25.7515 77.1859 25.7342 77.1607 25.7223C77.1355 25.7103 77.1082 25.704 77.0805 25.7038C77.0528 25.7035 77.0254 25.7093 77 25.7208" fill="#AD4043"/>
<path d="M121.609 105.383C121.26 105.411 120.921 105.512 120.611 105.679C120.301 105.847 120.027 106.078 119.806 106.358C119.367 106.925 119.057 107.586 118.9 108.294C118.563 109.649 118.792 111.242 119.173 112.585C120.581 112.049 121.438 110.477 121.827 109.655C122.436 108.355 122.779 105.615 121.609 105.383Z" fill="#AD4043"/>
<path opacity="0.2" d="M121.609 105.383C121.26 105.411 120.921 105.512 120.611 105.679C120.301 105.847 120.027 106.078 119.806 106.358C119.367 106.925 119.057 107.586 118.9 108.294C118.563 109.649 118.792 111.242 119.173 112.585C120.581 112.049 121.438 110.477 121.827 109.655C122.436 108.355 122.779 105.615 121.609 105.383Z" fill="black"/>
<path d="M117.157 114.241C117.365 113.898 117.483 113.504 117.498 113.099C117.513 112.694 117.424 112.292 117.241 111.934C117.052 111.58 116.796 111.268 116.49 111.017C116.183 110.766 115.832 110.58 115.455 110.471C115.288 110.402 115.108 110.372 114.928 110.383C114.747 110.394 114.572 110.445 114.413 110.534C114.279 110.641 114.175 110.783 114.113 110.946C114.05 111.108 114.03 111.285 114.056 111.458C114.11 111.805 114.253 112.13 114.468 112.401C115.162 113.358 116.004 114.153 117.157 114.241Z" fill="#AD4043"/>
<path d="M117.145 118.891C117.18 118.799 117.203 118.703 117.215 118.605C117.249 118.421 117.293 118.15 117.339 117.816C117.476 116.943 117.499 116.055 117.406 115.175C117.306 114.286 116.976 113.441 116.451 112.73C116.288 112.519 116.101 112.33 115.893 112.167C115.822 112.102 115.741 112.05 115.652 112.014C115.91 112.256 116.149 112.519 116.367 112.8C116.854 113.512 117.159 114.341 117.255 115.208C117.344 116.076 117.336 116.95 117.232 117.816C117.182 118.172 117.153 118.531 117.145 118.891Z" fill="#263238"/>
<path d="M121.173 107.441C121.091 107.58 121.021 107.726 120.964 107.878C120.839 108.161 120.674 108.574 120.453 109.082C120.032 110.106 119.472 111.533 118.891 113.126C118.31 114.719 117.822 116.173 117.483 117.23C117.314 117.76 117.192 118.191 117.094 118.489C117.04 118.64 117 118.796 116.975 118.955C117.043 118.81 117.101 118.66 117.149 118.507C117.262 118.188 117.407 117.772 117.584 117.266C117.947 116.218 118.455 114.77 119.036 113.18C119.617 111.591 120.16 110.169 120.555 109.122C120.744 108.625 120.9 108.218 121.022 107.896C121.084 107.749 121.135 107.597 121.173 107.441Z" fill="#263238"/>
<path d="M118.62 115.572C119.085 114.866 119.706 114.286 120.43 113.878C121.155 113.47 121.962 113.247 122.787 113.227C123.205 113.227 123.701 113.326 123.864 113.723C124.027 114.121 123.754 114.569 123.452 114.871C122.811 115.488 122.008 115.896 121.145 116.041C120.281 116.186 119.396 116.063 118.6 115.687" fill="#AD4043"/>
<path d="M122.066 114.292C121.976 114.278 121.884 114.278 121.793 114.292C121.687 114.298 121.581 114.312 121.477 114.334C121.338 114.355 121.2 114.384 121.064 114.421C120.708 114.515 120.362 114.646 120.031 114.813C119.626 115.02 119.243 115.271 118.89 115.563C118.543 115.862 118.228 116.198 117.949 116.565C117.725 116.869 117.53 117.194 117.368 117.538C117.304 117.667 117.247 117.801 117.2 117.938C117.158 118.035 117.124 118.136 117.098 118.239C117.066 118.327 117.045 118.42 117.037 118.513C117.066 118.513 117.174 118.137 117.464 117.574C117.636 117.246 117.835 116.935 118.059 116.644C118.61 115.927 119.303 115.343 120.092 114.93C120.413 114.762 120.748 114.624 121.093 114.518C121.683 114.352 122.069 114.322 122.066 114.292Z" fill="#263238"/>
<path d="M8.11088 51.9834C12.176 50.1226 14.1185 63.3859 14.3798 64.4187C14.6412 65.4514 15.3322 65.5749 16.514 64.0273C17.6958 62.4796 18.715 63.0788 18.715 63.0788C20.9392 64.4849 17.9223 72.6688 17.9513 73.3342C17.9804 73.9996 17.5042 74.9571 19.8155 73.6022C22.1268 72.2472 24.0664 71.5246 24.4032 73.6022C24.711 75.4931 22.3503 80.9519 22.3707 81.7318C22.391 82.5116 24.7778 80.5515 25.7824 79.9011C27.0833 79.0641 28.4712 79.1213 28.7151 80.8044C29.0316 83.0114 24.801 89.467 24.801 89.467L22.7685 92.755L19.0547 91.7162C19.0547 91.7162 11.7956 89.5904 10.6603 87.6995C9.78919 86.2452 10.8026 85.2667 12.3125 85.0258C13.4739 84.8421 16.514 84.7247 16.0523 84.1225C15.5907 83.5203 10.3757 80.97 9.42042 79.326C8.37511 77.5194 10.2915 76.7607 12.9048 76.2307C15.5181 75.7008 14.5512 75.2943 14.1534 74.7704C13.7556 74.2465 6.33385 70.0612 7.14397 67.4929C7.14397 67.4929 7.54177 66.3547 9.40881 66.7311C11.2759 67.1075 11.7317 66.5505 11.2729 65.5869C10.8142 64.6234 3.99642 53.2419 8.24154 51.9111" fill="#AD4043"/>
<path d="M24.9255 98.9133C24.8471 98.9434 21.3773 89.3053 17.1786 77.3878C12.9799 65.4704 9.62913 55.7841 9.71043 55.754C9.79174 55.7239 13.2587 65.362 17.4603 77.2824C21.6618 89.2029 25.0039 98.8832 24.9255 98.9133Z" fill="white"/>
<path d="M15.2788 71.5517C15.2033 71.5216 15.514 70.4346 16.0657 69.167C16.6174 67.8994 17.1865 66.9299 17.2591 66.972C17.3317 67.0142 16.8845 68.0319 16.3415 69.2935C15.7985 70.5551 15.3688 71.5788 15.2788 71.5517Z" fill="white"/>
<path d="M10.2836 69.3728C10.301 69.2915 11.4799 69.5324 12.8446 70.1075C14.2093 70.6826 15.2256 71.351 15.1849 71.4203C15.1443 71.4895 14.0815 70.9596 12.7342 70.3965C11.3869 69.8335 10.2603 69.4601 10.2836 69.3728Z" fill="white"/>
<path d="M18.3236 80.3435C18.2597 80.2863 19.1279 79.1391 20.2633 77.751C21.3986 76.363 22.3684 75.3091 22.4323 75.3633C22.4962 75.4175 21.628 76.5677 20.4926 77.9558C19.3573 79.3438 18.3875 80.4007 18.3236 80.3435Z" fill="white"/>
<path d="M11.5959 78.9328C11.5959 78.8515 13.1842 78.987 15.0977 79.3784C17.0112 79.7698 18.524 80.2576 18.5037 80.3389C18.4833 80.4202 16.9444 80.0709 15.0396 79.6855C13.1348 79.3001 11.5756 79.0231 11.5959 78.9328Z" fill="white"/>
<path d="M13.6739 87.356C13.6739 87.2686 15.3406 87.4493 17.3702 87.7594C19.3999 88.0696 21.0346 88.3887 21.0201 88.473C21.0056 88.5573 19.3563 88.3767 17.3267 88.0696C15.297 87.7624 13.6623 87.4403 13.6739 87.356Z" fill="white"/>
<path d="M21.2031 88.3318C21.148 88.2566 22.2717 87.3201 23.4389 85.9471C24.6062 84.5741 25.3757 83.3125 25.4512 83.3607C25.5266 83.4089 24.8704 84.7608 23.6654 86.1549C22.4604 87.549 21.2438 88.3981 21.2031 88.3318Z" fill="white"/>
<path d="M122.295 31.5238C122.295 31.5238 122.295 31.4545 122.312 31.325C122.329 31.1956 122.344 30.9999 122.37 30.753C122.37 30.6265 122.408 30.485 122.411 30.3284C122.414 30.1718 122.411 30.0002 122.411 29.8165C122.411 29.6329 122.411 29.4311 122.411 29.2143C122.411 28.9976 122.376 28.7778 122.356 28.5369C122.239 27.3721 121.945 26.2339 121.484 25.1646C120.876 23.7511 119.986 22.4877 118.871 21.4581L118.395 21.0305C118.227 20.898 118.049 20.7716 117.875 20.6421C117.514 20.3765 117.137 20.1352 116.746 19.9195C115.91 19.469 115.019 19.1368 114.098 18.9319C113.619 18.8198 113.134 18.7413 112.646 18.697C112.396 18.6669 112.141 18.679 111.885 18.6699H111.502C111.374 18.6699 111.246 18.691 111.116 18.7C110.048 18.7602 108.996 18.9971 108 19.4016C105.849 20.2589 104.026 21.8202 102.808 23.8488C101.515 26.0364 100.99 28.6198 101.322 31.1625C101.345 31.3311 101.371 31.4967 101.4 31.6593V31.6924L101.383 31.7195L97.962 36.6454L97.8923 36.525L102.939 35.715H102.982L103.009 35.7542C104.462 38.0107 106.673 39.6259 109.211 40.2857C109.592 40.39 109.98 40.4645 110.372 40.5085L110.953 40.5838C111.145 40.6079 111.336 40.5988 111.534 40.6079C112.973 40.65 114.405 40.3856 115.741 39.831C116.881 39.355 117.936 38.6821 118.86 37.8408L119.455 37.2597L119.966 36.6575C120.126 36.4667 120.274 36.2656 120.41 36.0553C120.541 35.8536 120.7 35.6729 120.796 35.4742C121.191 34.819 121.521 34.1239 121.781 33.3996L122.042 32.6047C122.094 32.3699 122.141 32.1711 122.175 32.0025L122.263 31.6412C122.283 31.5569 122.295 31.5177 122.295 31.5177C122.29 31.5593 122.284 31.6006 122.274 31.6412C122.257 31.7285 122.234 31.852 122.202 32.0085C122.17 32.1651 122.126 32.3729 122.077 32.6107L121.824 33.4116C121.573 34.1472 121.249 34.8535 120.857 35.5193C120.75 35.7211 120.602 35.9047 120.471 36.1215C120.335 36.3318 120.187 36.533 120.027 36.7237L119.516 37.3259L118.921 37.9281C117.993 38.7826 116.931 39.4669 115.782 39.9515C114.436 40.5094 112.994 40.7758 111.545 40.7343C111.354 40.7343 111.156 40.7343 110.965 40.7133L110.384 40.638C109.983 40.5944 109.586 40.52 109.196 40.4152C108.387 40.2069 107.602 39.9039 106.859 39.5119C105.269 38.6487 103.911 37.3895 102.907 35.8475L102.977 35.8776L97.9301 36.6936L97.7559 36.7207L97.8604 36.5702C98.9667 34.9743 100.111 33.3273 101.275 31.6442V31.7044C101.246 31.5388 101.217 31.3702 101.194 31.2016C100.862 28.6211 101.398 26.0009 102.712 23.7826C103.946 21.7218 105.796 20.1357 107.98 19.2661C108.985 18.8568 110.046 18.616 111.124 18.5525C111.255 18.5525 111.386 18.5284 111.516 18.5254H111.905C112.164 18.5254 112.419 18.5254 112.672 18.5525C113.17 18.5991 113.665 18.6805 114.153 18.7964C115.518 19.1109 116.806 19.7113 117.939 20.5608C118.116 20.6933 118.293 20.8228 118.465 20.9552L118.941 21.3918C120.937 23.2307 122.183 25.7887 122.425 28.5459C122.443 28.7868 122.46 29.0156 122.475 29.2294C122.489 29.4432 122.475 29.6449 122.475 29.8316C122.475 30.0183 122.475 30.1899 122.475 30.3465C122.475 30.503 122.44 30.6476 122.428 30.771C122.396 31.0179 122.37 31.2106 122.353 31.3431C122.335 31.4756 122.295 31.5238 122.295 31.5238Z" fill="#263238"/>
<path d="M115.27 25.4121L116.541 35.4236H107.102L108.475 25.4121H115.27Z" fill="#AD4043"/>
<path d="M109.245 26.8624C109.368 27.1968 109.529 27.515 109.724 27.8108C109.943 28.1192 110.223 28.3758 110.545 28.5636C110.947 28.7831 111.395 28.8949 111.849 28.8888C112.302 28.9004 112.75 28.7971 113.156 28.5877C113.482 28.4074 113.76 28.1469 113.966 27.8289C114.15 27.5266 114.296 27.2007 114.399 26.8594C114.409 26.9614 114.397 27.0647 114.361 27.1605C114.295 27.4209 114.193 27.6696 114.056 27.8982C113.851 28.2427 113.564 28.5268 113.223 28.7232C112.798 28.9528 112.324 29.0657 111.846 29.0514C111.368 29.0576 110.897 28.9352 110.479 28.6961C110.142 28.4943 109.853 28.2152 109.637 27.8801C109.491 27.657 109.377 27.4137 109.297 27.1575C109.259 27.0642 109.241 26.9635 109.245 26.8624Z" fill="white"/>
<path d="M56.8189 2.61328V26.5415L50.9361 20.4413H8.10156V2.61328H56.8189Z" fill="#AD4043"/>
<path d="M45.0004 18.8791C48.5861 18.8791 51.4929 15.8649 51.4929 12.1466C51.4929 8.42832 48.5861 5.41406 45.0004 5.41406C41.4146 5.41406 38.5078 8.42832 38.5078 12.1466C38.5078 15.8649 41.4146 18.8791 45.0004 18.8791Z" fill="#AD4043"/>
<path opacity="0.2" d="M45.0004 18.8791C48.5861 18.8791 51.4929 15.8649 51.4929 12.1466C51.4929 8.42832 48.5861 5.41406 45.0004 5.41406C41.4146 5.41406 38.5078 8.42832 38.5078 12.1466C38.5078 15.8649 41.4146 18.8791 45.0004 18.8791Z" fill="black"/>
<path d="M12.6055 9.96069C12.6055 9.90649 17.6288 9.86133 23.8251 9.86133C30.0215 9.86133 35.0448 9.90649 35.0448 9.96069C35.0448 10.0149 30.0244 10.0601 23.8251 10.0601C17.6259 10.0601 12.6055 10.0239 12.6055 9.96069Z" fill="white"/>
<path d="M12.6055 12.5232C12.6055 12.469 17.6288 12.4238 23.8251 12.4238C30.0215 12.4238 35.0448 12.469 35.0448 12.5232C35.0448 12.5774 30.0244 12.6195 23.8251 12.6195C17.6259 12.6195 12.6055 12.5774 12.6055 12.5232Z" fill="white"/>
<path d="M23.3828 15.0427C23.3828 14.9885 25.9961 14.9434 29.2133 14.9434C32.4306 14.9434 35.0438 14.9885 35.0438 15.0427C35.0438 15.0969 32.4306 15.1391 29.2133 15.1391C25.9961 15.1391 23.3828 15.0969 23.3828 15.0427Z" fill="white"/>
<path d="M22.9355 7.31225C22.9355 7.25806 25.6475 7.21289 28.9896 7.21289C32.3317 7.21289 35.0437 7.25806 35.0437 7.31225C35.0437 7.36645 32.3346 7.41162 28.9896 7.41162C25.6446 7.41162 22.9355 7.37849 22.9355 7.31225Z" fill="white"/>
<path d="M45.5706 12.0313C45.8564 11.8941 46.0971 11.6729 46.2628 11.3951C46.4285 11.1173 46.5119 10.7951 46.5027 10.4686C46.5124 10.2549 46.4798 10.0413 46.4069 9.84111C46.3341 9.64089 46.2225 9.45825 46.0791 9.30441C45.9356 9.15058 45.7633 9.0288 45.5728 8.94658C45.3823 8.86436 45.1775 8.82343 44.9712 8.82631C44.7648 8.82919 44.5612 8.87582 44.3729 8.96333C44.1846 9.05084 44.0155 9.17738 43.8761 9.33516C43.7367 9.49295 43.6299 9.67864 43.5623 9.88082C43.4947 10.083 43.4676 10.2974 43.4829 10.5108C43.4825 10.8405 43.5764 11.1628 43.7526 11.4372C43.9289 11.7116 44.1795 11.9257 44.473 12.0524C42.1501 12.4589 42.3069 15.0634 42.3069 15.0634L47.8035 14.9851C47.8035 14.9851 47.8732 12.3475 45.5706 12.0313Z" fill="white"/>
<path d="M47.2358 36.7559V46.5716L44.8228 44.0695H27.25V36.7559H47.2358Z" fill="#AD4043"/>
<path d="M35.9629 39.0998C35.9629 39.0546 37.9112 39.0215 40.3184 39.0215C42.7255 39.0215 44.6738 39.0546 44.6738 39.0998C44.6738 39.1449 42.7255 39.1781 40.3184 39.1781C37.9112 39.1781 35.9629 39.1419 35.9629 39.0998Z" fill="white"/>
<path d="M41.8418 41.1393C42.2445 41.0604 42.6552 41.0341 43.0642 41.061C43.4742 41.0341 43.8859 41.0604 44.2896 41.1393C43.8856 41.2164 43.4742 41.2427 43.0642 41.2176C42.6552 41.2426 42.2447 41.2163 41.8418 41.1393Z" fill="white"/>
<path d="M41.2636 41.7014C41.2229 41.7014 41.1532 41.5719 41.0719 41.4003C40.9906 41.2287 40.9238 41.0992 40.9587 41.063C40.9935 41.0269 41.1184 41.1474 41.2055 41.331C41.2926 41.5147 41.3042 41.6923 41.2636 41.7014Z" fill="white"/>
<path d="M36.7422 41.0661C37.3003 40.9888 37.8638 40.9626 38.4263 40.9879C38.9878 40.9625 39.5504 40.9887 40.1075 41.0661C39.5506 41.1454 38.9878 41.1716 38.4263 41.1444C37.8638 41.1715 37.3001 41.1453 36.7422 41.0661Z" fill="white"/>
<path d="M36.3357 41.6658C36.2979 41.6869 36.1934 41.5544 36.0976 41.3647C36.0018 41.175 35.9582 41.0154 35.996 40.9943C36.0337 40.9733 36.1382 41.1088 36.2341 41.2954C36.3299 41.4821 36.3734 41.6387 36.3357 41.6658Z" fill="white"/>
<path d="M31.4434 41.0359C32.0285 40.9567 32.6192 40.9305 33.2088 40.9576C33.7993 40.9305 34.391 40.9567 34.9771 41.0359C34.3908 41.1133 33.7993 41.1394 33.2088 41.1142C32.6192 41.1395 32.0287 41.1133 31.4434 41.0359Z" fill="white"/>
<path d="M31.006 41.337C30.9712 41.3611 30.8637 41.2497 30.765 41.0901C30.6663 40.9305 30.6169 40.789 30.6518 40.7619C30.6866 40.7348 30.794 40.8462 30.8928 41.0058C30.9915 41.1653 31.0525 41.337 31.006 41.337Z" fill="white"/>
<path d="M29.0195 40.8908C29.0195 40.8456 29.2547 40.8125 29.5451 40.8125C29.8355 40.8125 30.0736 40.8456 30.0736 40.8908C30.0736 40.936 29.8355 40.9691 29.5451 40.9691C29.2547 40.9691 29.0195 40.9329 29.0195 40.8908Z" fill="white"/>
</svg>
