<svg width="32" height="32" viewBox="0 0 32 32" fill="none" xmlns="http://www.w3.org/2000/svg">
<path d="M15.9997 10.6666C17.4663 10.6666 18.6663 9.46665 18.6663 7.99998C18.6663 6.53331 17.4663 5.33331 15.9997 5.33331C14.533 5.33331 13.333 6.53331 13.333 7.99998C13.333 9.46665 14.533 10.6666 15.9997 10.6666ZM15.9997 13.3333C14.533 13.3333 13.333 14.5333 13.333 16C13.333 17.4666 14.533 18.6666 15.9997 18.6666C17.4663 18.6666 18.6663 17.4666 18.6663 16C18.6663 14.5333 17.4663 13.3333 15.9997 13.3333ZM15.9997 21.3333C14.533 21.3333 13.333 22.5333 13.333 24C13.333 25.4666 14.533 26.6666 15.9997 26.6666C17.4663 26.6666 18.6663 25.4666 18.6663 24C18.6663 22.5333 17.4663 21.3333 15.9997 21.3333Z" fill="#191D21"/>
</svg>
